<?xml version="1.0" encoding="UTF-8"?> <svg xmlns="http://www.w3.org/2000/svg" viewBox="0 0 429.99 85.71"> <defs> <style>.cls-1{fill:#f15a22;}.cls-1,.cls-2{fill-rule:evenodd;}.cls-2{fill:#a1cd3d;}</style> </defs> <g id="Layer_2" data-name="Layer 2"> <g id="Layer_1-2" data-name="Layer 1"> <path class="cls-1" d="M38.45,0a58.8,58.8,0,0,0-8.81,11.58,49,49,0,0,0-5.06,12.48,48,48,0,0,0-10.16-5.6A59.72,59.72,0,0,0,.35,14.77,58.59,58.59,0,0,0,.55,29.3,47.35,47.35,0,0,0,3,39a42.86,42.86,0,0,1,8-.76A41.71,41.71,0,0,1,38.45,48.57,41.71,41.71,0,0,1,66,38.26a42.65,42.65,0,0,1,8,.76,47.34,47.34,0,0,0,2.41-9.72,59.13,59.13,0,0,0,.2-14.53,59.18,59.18,0,0,0-14.07,3.69,47.91,47.91,0,0,0-10.17,5.6,47.77,47.77,0,0,0-5-12.48A59.34,59.34,0,0,0,38.45,0Z"></path> <path class="cls-2" d="M3.74,43.78A34.15,34.15,0,0,0,24.63,73.43,41.75,41.75,0,0,1,35,52a36.85,36.85,0,0,0-24.05-8.88A36.25,36.25,0,0,0,3.74,43.78Z"></path> <path class="cls-2" d="M28.35,84.63l2.27,1.08a98.33,98.33,0,0,1,4.57-9.62c1.08.09,2.16.15,3.26.15,18.61,0,33.81-14.39,34.71-32.46a36.4,36.4,0,0,0-7.2-.7A37,37,0,0,0,29.27,75l.15,0A59.54,59.54,0,0,1,58,52.35l.66-.23A74.76,74.76,0,0,0,33.41,75.88h0A84.84,84.84,0,0,0,28.35,84.63Z"></path> <path class="cls-1" d="M280.2,51.51c8.45-3.26,15.11-8.57,15.11-18.38,0-12.39-9-18.91-22.33-18.91h-43.7v.38c1.37.13,3,4,3,9.1l0,41.28c0,4.88,6.33,9.13,10.33,9.13H253v-.48c-1.91-.13-3.54-2-3.54-5.22V51.79h13.06c.3.37.75.92,1.29,1.61,3.86,4.78,13,15.95,14.1,17.31,0,0,2.66,3.4,9.12,3.4h15.94V73.7c-1.92,0-4.16-2.28-5.93-4ZM268.76,40.35H249.43V25.64h18.38c8,0,10.35,3.13,10.35,7.36C278.16,37.9,274.49,40.35,268.76,40.35Z"></path> <path class="cls-1" d="M342.43,14.6c.81.13,2.29,3.9,2.29,9.1V52c0,6.9-5.68,9.61-13.51,9.61S317.68,58.94,317.68,52V23.7c0-5.2,1.49-9,2.31-9.1v-.37H295.61v.37c2.18.13,3.93,3.11,3.93,9.1V49c0,14.31,7.83,26.49,31.62,26.5h.07c23.8,0,31.64-12.19,31.64-26.5V23.7c0-6,1.74-9,3.91-9.09v-.38H342.43Z"></path> <path class="cls-1" d="M142.67,69.72c.48-1.57,17.83-38.27,24.45-52.52.52-1.1,1.38-2.6,2.72-2.6v-.4H147.25l0,.4c.55,0,1.8,1.9,1.29,3.77-.4,1.44-2.49,5.51-3.44,8l-6.36,13.41-9.58,20-9.58-20L113.2,26.32c-1-2.44-3-6.51-3.44-7.95-.51-1.87.73-3.77,1.27-3.77v-.4H88.42v.4c1.35,0,2.21,1.5,2.72,2.6,6.62,14.25,24,51,24.46,52.52.65,2.09.19,3.87-1.17,4v.4h29.42v-.4C142.49,73.59,142,71.81,142.67,69.72Z"></path> <path class="cls-1" d="M384.7,31.67c-.19-6,11.93-6,15.32-6,8.84,0,16.77,2,20.82,7h0l7-15.86-.54-.2a8.18,8.18,0,0,1-3.5.35c-3-.14-14.27-3.53-27.19-3.53-22.2,0-29.86,11.83-29.58,20.27.75,22.89,44.93,12.53,45.28,23.16.19,5.3-8.81,5.85-12.2,5.85-9,0-21.77-2.55-26.21-5.42a2.11,2.11,0,0,1-.27-.18c-.12-.1-.23-.17-.35-.26a12,12,0,0,1-2.22-2.1l-4.2,15.47.5.19a5.82,5.82,0,0,1,3.71-.36c1.09.16,16.52,4.91,29.57,4.91C421.51,75,430.34,65.7,430,55.1,429.21,31.41,385,41.34,384.7,31.67Z"></path> <path class="cls-1" d="M227.7,69.61c-6.8-14.54-21.84-46.9-23.36-50.29-1.3-2.89-.49-4.59.88-4.72v-.38H175.49l0,.38c1.37.13,2.18,1.83.87,4.72-1.52,3.39-16.54,35.75-23.36,50.29-1.27,2.71-3.31,4.09-4.4,4.09v.41h20c1.64-3.94,4.81-10.4,5.61-12.12h32.21c.8,1.72,4,8.18,5.6,12.12h20.05V73.7C231,73.7,229,72.32,227.7,69.61Zm-37.26-21h-.16l-9.54-.21,9.61-20h0L200,48.39Z"></path> </g> </g> </svg> 