<?xml version="1.0" encoding="UTF-8"?> <!-- Generator: Adobe Illustrator 22.1.0, SVG Export Plug-In . SVG Version: 6.00 Build 0) --> <svg xmlns="http://www.w3.org/2000/svg" xmlns:xlink="http://www.w3.org/1999/xlink" version="1.2" id="Слой_1" x="0px" y="0px" viewBox="0 0 1071 143" xml:space="preserve"> <g> <g> <path fill="#17AF95" d="M774.5,48.8c2.1-4.8,3-10,3-14.3c0-18-15.6-32.1-35.5-32.1h-50.8V138h65.1c29.1,0,44.4-23.2,44.4-46.1 C800.7,74.7,791.8,56.5,774.5,48.8z M747.1,44.7h-32.4V25.5h26.5c6.5,0,13,3.3,13,9.7C754.2,36.1,754,44.7,747.1,44.7z M714.7,67.5h40.1c15.3,0,22.1,12.1,22.1,24.1c0,17.2-11.9,23.3-22.1,23.3h-40.1V67.5z"></path> <polygon fill="#17AF95" points="427.4,138.2 468.7,36.2 509,138.2 535,138.2 481.9,3.8 455.7,3.8 401.4,138.2 "></polygon> <polygon fill="#17AF95" points="894.6,138.1 931.4,138.1 861.6,68.2 926.1,3.7 889.3,3.7 843.1,49.8 843.1,3.7 817.1,3.7 817.1,138.1 843.1,138.1 843.1,86.7 843.2,86.6 "></polygon> <path fill="#17AF95" d="M664,105.4l-10.7-27L624.2,4.5H598l-30.7,75.9l-10.5,26.1l-13.1,32.4h26.1l6.6-16.4 c9.9,5.4,21.4,8.5,33.6,8.5c12.6,0,24.4-3.3,34.6-9.1l6.7,17h26L664,105.4z M610,108.2c-9.2,0-17.8-2.6-25-7.1l26-64.3l25.1,63.6 C628.7,105.4,619.7,108.2,610,108.2z"></path> <path fill="#17AF95" d="M1057.3,105.4l-10.7-27l-29.2-73.9h-26.1l-30.7,75.9l-10.5,26.1L937,138.8h26.1l6.6-16.4 c9.9,5.4,21.4,8.5,33.6,8.5c12.6,0,24.4-3.3,34.6-9.1l6.7,17h26L1057.3,105.4z M1003.3,108.2c-9.2,0-17.8-2.6-25-7.1l26-64.3 l25.1,63.6C1022,105.4,1013,108.2,1003.3,108.2z"></path> </g> <polygon fill="#17AF95" points="25.8,112.2 25.8,97.9 65.3,97.9 65.3,71.8 25.8,71.8 25.8,29.9 88.5,29.9 88.5,3.9 -0.2,3.9 -0.2,138.3 92.4,138.3 92.4,112.2 "></polygon> <polygon fill="#17AF95" points="190.5,138.3 227.3,138.3 157.4,68.4 221.9,3.8 185.1,3.8 138.9,50 138.9,3.8 112.9,3.8 112.9,138.3 138.9,138.3 138.9,86.8 139,86.8 "></polygon> <path fill="#FFCC40" d="M295.1,0c-39.2,0-71.1,30.7-71.1,68.5c0,5.2,0.6,10.2,1.7,15.1h24.7c-1.8-4.7-2.7-9.8-2.7-15.1 c0-24.9,21.3-45.2,47.4-45.2c26,0,47.2,20.3,47.2,45.2c0,5.3-1,10.4-2.7,15.1h24.7c1.1-4.9,1.7-9.9,1.7-15.1 C366,30.8,334.2,0,295.1,0z"></path> <path fill="#FFCC40" d="M361.7,97.9c-10,26.2-36,45-66.6,45c-30.6,0-56.8-18.8-66.7-45H361.7z"></path> </g> </svg> 