<svg id="Слой_1" data-name="Слой 1" xmlns="http://www.w3.org/2000/svg" viewBox="0 0 1077.17 347.58">
  <defs>
    <style>
      .cls-1, .cls-2 {
        fill-rule: evenodd;
      }

      .cls-2 {
        fill: #ffed00;
      }
    </style>
  </defs>
  <title>logo_mm</title>
  <g>
    <path class="cls-1" d="M2416,228.7h-16.13V187.75H2482V228.7h-16.12V433.79H2416ZM1984.86,137V433.79H1836.3V137h59.55l14.53,91.6,14.53-91.6Zm-431.53,0V433.79H1404.79V137h59.54l14.51,91.6,14.54-91.6ZM2303,433.79H2199.46v-246h99.24l-23.09,107.59ZM2038.37,185.32h5.35c19.74,0,44.17,9.08,44.17,32V433.79h-49.43V432.6l-3.48.93c-20,5.38-42.44.59-42.44-23.33V329.86c0-25.53,7.46-36.17,31.29-46l4.77-2h-36.07V217.33c0-23.78,25.67-32,45.82-32m-259.68,0H1784c19.76,0,44.2,9.08,44.2,32V433.79H1778.8V432.6l-3.49.93c-19.9,5.34-42.46.59-42.46-23.33V329.84c0-25.5,7.47-36.14,31.31-46l4.77-2h-36.09V217.33c0-23.78,25.69-32,45.84-32m-64.8,248.48h-49.82v-246h68.35V228.7h-18.53Zm684.36-216.46V325.4h-45.53v9.81h45.53V405c0,21.69-24.74,30.74-43.37,30.75l-6.56,0c-19.24,0-45.42-7.9-45.42-30.78V217.35c0-23.73,25.27-32,45.4-32h6.57c19.53,0,43.38,9.55,43.38,32m-741.88,0V325.4h-45.53v9.81h45.53V405c0,21.69-24.76,30.74-43.37,30.75l-6.55,0c-19.24,0-45.44-7.9-45.44-30.78V217.33c0-23.71,25.27-32,45.42-32H1613c19.51,0,43.38,9.55,43.38,32m489.85-28.53.62-.22a44.44,44.44,0,0,1,14.54-2.45c17.65,0,30,10.3,30,28.4v190c0,25.48-21.93,33.1-43.32,28.37l-1.81-.39v52H2096V187.75h50.23Z" transform="translate(-1404.79 -136.99)"/>
    <path class="cls-2" d="M2423,220.73h-15.12v-25H2474v25h-15.24c-.63,0-.89.44-.89,1.07v204H2424v-204c0-.78-.21-1.07-1-1.07M1909.72,275.4a.68.68,0,0,0,1.32,0L1931.73,145h45.12V425.79H1939.4V294.63a.5.5,0,0,0-.53-.49.59.59,0,0,0-.58.49l-17.83,131.17h-20.14l-17.5-131.17a.57.57,0,0,0-.54-.48.5.5,0,0,0-.52.48V425.79h-37.46V145H1889Zm-431.53,0a.68.68,0,0,0,1.32,0L1500.2,145h45.13V425.79h-37.45V294.63a.5.5,0,0,0-.53-.49.6.6,0,0,0-.61.49l-17.81,131.17h-20.15L1451.3,294.63a.61.61,0,0,0-.54-.48.49.49,0,0,0-.51.48V425.79h-37.48V145h44.73Zm729.25,150.39V195.73h33.84v61.53a.64.64,0,0,0,.64.68.71.71,0,0,0,.73-.68L2253,195.73h35.85l-21.23,99a2.47,2.47,0,0,0,0,1.07l25.67,130H2256.6l-14-88.08a.7.7,0,0,0-.72-.66.63.63,0,0,0-.59.66v88.08Zm-69.2-30.61c0,3.52,2,6.08,5.24,6.45,3.6.41,6.44-2.62,6.44-6.45V226.38c0-3.65-2.18-6.9-6-6.87-3.56,0-5.63,3.5-5.63,6.87Zm-91.76-72.93a6.06,6.06,0,1,0-12.11,0v72.93a6.68,6.68,0,0,0,5.66,6.45c3.33.37,6.44-2.87,6.44-6.45Zm-45.94,9.67c0-23.94,4.51-31.68,26.38-40.71l17.39-7.17c1.68-.68,2.16-1.57,2.16-3.6V225.56a6.06,6.06,0,1,0-12.11,0v48.33h-33.83v-56.4c0-18.53,23.19-24.16,37.87-24.16h5.25c14.32,0,36.24,6.33,36.24,24.16v208.3h-33.42v-.71c0-1.67-.85-2.66-2.85-2.14L2033,425.79c-6.62,1.79-14.75,2.51-21.2.46s-11.25-6.87-11.25-16.17Zm-213.76-9.67a6.05,6.05,0,1,0-12.08,0v72.93a6.67,6.67,0,0,0,5.64,6.45c3.33.37,6.44-2.87,6.44-6.45Zm-45.94,9.67c0-23.94,4.52-31.68,26.4-40.71l17.41-7.17c1.67-.68,2.13-1.57,2.13-3.6V225.56a6.05,6.05,0,1,0-12.08,0v48.33h-33.86v-56.4c0-18.53,23.19-24.16,37.88-24.16H1784c14.31,0,36.26,6.33,36.26,24.16v208.3h-33.46v-.71c0-1.67-.86-2.66-2.86-2.14l-10.64,2.85c-6.63,1.79-14.75,2.51-21.19.46s-11.25-6.87-11.25-16.17ZM1672,195.73h52.39v25h-17.88a.62.62,0,0,0-.66.65V425.79H1672Zm684.38,29.82a5.86,5.86,0,1,0-11.71,0V290c0,1.52.45,2.48,2.16,2.48h7.4c1.76,0,2.15-1,2.15-2.48Zm-45.55-8.07c0-18.53,22.73-24.16,37.48-24.16h6.46c14.24,0,35.44,6.82,35.44,24.16v99.92h-44.31a1.16,1.16,0,0,0-1.23,1.3v77.68c0,3.47,2.21,6.47,5.86,6.47,3.42,0,5.84-2.86,5.84-6.47V343.2h33.83v61.66c0,16.34-22.3,23-35.44,23h-6.46c-13.63,0-37.48-5.55-37.48-23Zm-696.33,8.07a5.85,5.85,0,1,0-11.69,0V290c0,1.52.45,2.48,2.14,2.48h7.39c1.74,0,2.15-1,2.15-2.48ZM1569,217.49c0-18.53,22.75-24.16,37.47-24.16h6.46c14.26,0,35.45,6.82,35.45,24.16v99.92h-44.32a1.14,1.14,0,0,0-1.21,1.3v77.68c0,3.52,2,6.1,5.24,6.45,3.58.41,6.45-2.6,6.45-6.45V343.2h33.84v61.66c0,16.34-22.3,22.94-35.45,23h-6.46c-13.62,0-37.47-5.55-37.47-23Zm614.36,187c0,10.74-5.09,16.82-12.25,19.67s-16.39,2.49-24.6.28l-6-1.61c-1.31-.34-2.23,0-2.23,1.5v52.3H2104V195.73h34.24v1.81c0,1.76,1,2.24,2.36,1.77l7.18-2.59c7.8-2.81,16.71-3.58,23.64-1s11.94,8.46,11.94,19Z" transform="translate(-1404.79 -136.99)"/>
  </g>
</svg>
