<svg xmlns="http://www.w3.org/2000/svg" fill="none" viewBox="0 0 336 56"><path fill="#000" d="M183.206 7.316h-6.184s1.237 2.173 1.237 5.628v11.589c0 4.346-1.237 5.516-1.237 5.516h5.79s-.955-.836-.955-3.455V14.56c.056-4.96 1.349-7.244 1.349-7.244zm-19.563 4.57l-3.261 11.7-5.959-16.27-5.958 16.27-2.361-8.525c-.338-1.226-1.687-6.63 0-7.745h-7.252s2.361 3.343 4.103 9.528l3.654 13.26h2.98l4.778-12.926 4.779 12.927h2.979l4.778-17.328c1.068-3.566 2.418-5.46 2.418-5.46h-5.734c.393 1.337.393 3.398.056 4.568zm50.763-4.57h-5.397s.674 1.56.674 4.068v12.703L198.328 9.49c-1.012-1.17-.843-2.228-.843-2.228h-5.959s1.18.613 2.979 3.008v15.49c0 2.618-.787 4.234-.787 4.234h5.228s-.843-1.616-.843-4.234V14.615l10.231 13.205s1.012 1.449 1.125 2.229h4.497s-.787-2.062-.787-5.572v-9.305c-.113-4.791 1.237-7.856 1.237-7.856zm13.829 20.671v-9.026c3.878 0 6.071 1.059 6.071 1.059l2.024-3.232h-8.095V9.49c4.441 0 7.308 1.393 7.308 1.393l1.855-3.51h-14.391s1.686 1.783 1.686 5.85v12.035c0 3.622-.787 4.903-.787 4.903h13.098l1.743-4.29c-4.329 2.229-9.782 2.117-10.512 2.117zm96.297 0v-8.97c3.879 0 5.903 1.059 5.903 1.059l2.023-3.232h-7.926V9.489c4.441 0 7.983 1.393 7.983 1.393l1.855-3.51h-14.729s1.293 1.505 1.293 5.405v13.149c0 2.618-.955 4.234-.955 4.234h13.997L336 25.313c-4.329 1.894-8.938 2.674-11.468 2.674zM306.093 9.434l-7.139 8.859-7.252-8.915c-.675-.892-.393-2.062-.393-2.062h-6.072s2.474 2.006 2.474 3.455v14.096c0 3.343-.956 5.238-.956 5.238h5.509s-.955-1.783-.955-4.402V13.78l7.645 9.416 7.701-9.472v12.09c0 2.619-.955 4.235-.955 4.235h5.509s-.956-1.895-.956-5.85V11.494s.338-2.953 2.024-4.234h-4.778c-.338.947-1.406 2.173-1.406 2.173zM277.03 7.316h-5.509s.955 1.616.955 4.235v12.926c0 4.346-1.18 5.572-1.18 5.572h5.734s-.956-1.616-.956-4.235V11.551c0-2.619.956-4.235.956-4.235zm-32.718 3.956s4.048-1.504 8.039-1.504V24.7c0 3.789-1.237 5.405-1.237 5.405h5.791s-.956-2.62-.956-5.628V9.712c3.485 0 5.059.056 6.69 1.282l1.855-3.678h-18.945l-1.237 3.956zM277.111 54.093l1.779-8.96 2.882 6.505 2.944-6.505 1.594 8.96h-1.287l-.798-5.032-2.453 5.4L279.381 49l-.92 5.032h-1.35v.062zM296 52.068h-3.557l-.92 2.025h-1.41l4.109-8.899 3.986 8.899h-1.349L296 52.068zm-.552-1.166l-1.226-2.823-1.288 2.823h2.514zM305.015 50.533l2.576 3.56h-1.534l-2.391-3.437h-.246v3.436h-1.287v-8.346h1.471c1.104 0 1.902.184 2.392.614.552.49.797 1.043.797 1.841a2.55 2.55 0 0 1-.49 1.534c-.307.43-.736.675-1.288.798zm-1.595-.92h.43c1.165 0 1.778-.43 1.778-1.35 0-.86-.552-1.29-1.717-1.29h-.429v2.64h-.062zM312.926 49.121l3.25-3.314h1.656l-3.802 3.805 3.802 4.542h-1.717l-3.005-3.744-.245.246v3.436h-1.288v-8.346h1.288v3.375h.061zM326.479 46.974h-3.373v2.025h3.25v1.166h-3.25v2.761h3.373v1.166h-4.6v-8.346h4.6v1.228zM333.532 46.974v7.18h-1.288v-7.18h-1.901v-1.166h5.09v1.166h-1.901zM143.574 49.674h3.434v.246c0 .613-.061 1.166-.245 1.657-.123.43-.368.859-.736 1.227-.797.86-1.779 1.289-2.944 1.289s-2.146-.43-3.005-1.289c-.858-.86-1.226-1.841-1.226-3.068 0-1.228.429-2.271 1.288-3.069.858-.859 1.901-1.289 3.066-1.289a4.48 4.48 0 0 1 1.84.369c.552.245 1.042.675 1.594 1.288l-.92.86c-.674-.921-1.533-1.35-2.514-1.35a3.01 3.01 0 0 0-2.208.92c-.613.614-.92 1.35-.92 2.27 0 .921.307 1.719.981 2.271.614.553 1.288.86 2.024.86.613 0 1.165-.185 1.656-.614.491-.43.797-.92.797-1.535h-2.085v-1.043h.123zM156.023 52.006h-3.557l-.92 2.026h-1.41l4.109-8.9 3.986 8.9h-1.349l-.859-2.026zm-.552-1.227l-1.226-2.823-1.288 2.823h2.514zM166.755 46.913l-1.042.613c-.184-.307-.368-.552-.552-.675a1.236 1.236 0 0 0-.675-.184c-.368 0-.613.123-.858.307a.873.873 0 0 0-.368.736c0 .43.306.737.92.982l.858.368c.675.246 1.165.614 1.472.982.307.368.491.86.491 1.473 0 .798-.246 1.412-.798 1.903-.49.49-1.165.736-1.901.736s-1.349-.245-1.778-.675c-.491-.43-.736-1.043-.859-1.841l1.288-.307c.061.491.184.86.307 1.043.245.369.613.553 1.165.553.368 0 .736-.123.981-.368.245-.246.368-.614.368-.982 0-.185 0-.307-.061-.43a63.16 63.16 0 0 1-.184-.368c-.123-.123-.245-.246-.368-.307-.123-.123-.307-.184-.552-.307l-.797-.307c-1.165-.49-1.717-1.166-1.717-2.148 0-.613.245-1.166.735-1.595.491-.43 1.104-.614 1.779-.614.859 0 1.594.43 2.146 1.412zM173.808 46.851v7.18h-1.288v-7.18h-1.901v-1.227h5.09v1.166h-1.901v.061zM182.577 50.472l2.576 3.56h-1.533l-2.392-3.438h-.245v3.437h-1.288v-8.407h1.472c1.104 0 1.901.184 2.391.613.552.491.798 1.044.798 1.841 0 .614-.184 1.105-.491 1.535-.307.43-.736.736-1.288.859zm-1.594-.982h.429c1.165 0 1.779-.43 1.779-1.35 0-.86-.552-1.289-1.718-1.289h-.429v2.639h-.061zM188.648 49.797c0-1.166.43-2.21 1.288-3.007.859-.86 1.901-1.289 3.067-1.289 1.165 0 2.207.43 3.066 1.289.858.859 1.288 1.902 1.288 3.068 0 1.228-.43 2.21-1.288 3.069-.859.859-1.901 1.288-3.128 1.288-1.104 0-2.023-.368-2.882-1.104-.92-.92-1.411-1.964-1.411-3.314zm1.288 0c0 .92.307 1.657.92 2.27.613.614 1.349.921 2.147.921.858 0 1.594-.307 2.207-.92.614-.614.92-1.35.92-2.21 0-.92-.306-1.657-.92-2.21a3.009 3.009 0 0 0-2.207-.92 3.01 3.01 0 0 0-2.208.92c-.552.553-.859 1.29-.859 2.149zM226.042 45.624l2.147 5.585 2.269-6.015 2.146 6.015 2.331-5.585h1.349l-3.741 8.898-2.147-5.89-2.269 5.952-3.557-8.899h1.472v-.061zM241.558 45.624v8.346h-1.288v-8.346h1.288zM246.464 54.032v-8.9l6.071 6.383v-5.891h1.288v8.837l-6.071-6.382v5.83h-1.288v.123zM263.328 46.851h-3.372v2.025h3.25v1.166h-3.25v2.762h3.372v1.166h-4.599v-8.346h4.599v1.227z"/><path fill="#EF4823" d="M214.084 52.537l-.116-.12c.7-1.373.817-3.164.817-5.254.584 0 1.343.478 1.343.478V46.208H212.1V47.64s.759-.478 1.401-.478c0 1.672 0 3.105-.467 4.24-.934-.956-1.868-1.553-2.627-1.911a2.69 2.69 0 0 0 .875-1.97c0-1.493-1.342-2.39-2.626-2.39-1.285 0-2.627.897-2.627 2.39 0 .716.35 1.433.875 1.97-1.051.537-2.043 1.552-2.043 3.105 0 2.329 2.452 3.045 3.736 3.105h.292c.642 0 2.218-.12 3.678-1.493.233-.239.467-.478.642-.716.817 1.015 1.693 1.731 2.627 2.09l.467-1.195c-.759-.239-1.518-.895-2.219-1.85zm-5.37-6.09c.642 0 1.343.418 1.343 1.074 0 .657-.701 1.374-1.343 1.374s-1.343-.717-1.343-1.374c-.058-.656.701-1.074 1.343-1.074zm3.035 6.866c-1.342 1.254-2.918 1.135-3.035 1.135-2.51-.12-2.569-1.791-2.569-1.851 0-1.791 2.043-2.27 2.511-2.389.408.06 2.043.538 3.736 2.33-.176.298-.409.537-.643.775z"/><path fill="#FF5000" d="M117.653 17.252c0-.18 0-.316-.045-.45-.091-.271-.498-.18-.724-.18-.498.044-1.086-.091-1.583-.091-.453-.045-.996-.045-1.403-.225-.498-.225-.814-.27-1.222-.586-.542-.36-.769-1.035-.995-1.62-.136-.316-.226-.676-.407-.991a8.94 8.94 0 0 0-1.312-2.072c-.452-.495-.769-.855-1.267-1.305-.497-.496-1.267-.676-1.674-1.261-.407-.585-.181-1.486-.135-2.161.045-.856.045-1.667-.091-2.522 0-.18-.09-1.396-.407-1.35-.136 0-.226.404-.272.494l-.271 1.081c-.226.766-.633 1.441-1.041 2.116l-.678 1.081c-.091.135-.272.405-.453.45h-.135c-.181-.765-.362-1.53-.407-2.296-.046-.856 0-1.666.045-2.522.045-.54.181-1.215 0-1.756-.136-.405-.407-.045-.588.135-.408.496-.679 1.081-.996 1.621-.362.676-.724 1.351-1.131 2.027-.814 1.396-1.81 2.611-3.393 3.197-.724.27-1.538.45-2.262.72a4.452 4.452 0 0 0-1.674 1.216c-.136.135-.633.675 0 .315.09-.045.407-.135.407.045.181-.045.227.135.046.18-.181.09-.362.135-.543.225-.046.045-.362.27-.453.136-.588.225-1.086.45-1.583.765-.453.27-.996.405-1.312.856-.09.135-.588.45-.498.585.09.18.498-.09.588-.135.272-.09.498.045.317.315-.181.225-.407.45-.634.63-.226.18-.497.226-.769.406-.271.135-.542.27-.86.405-.587.225-1.175.45-1.809.54-.317.045-.588.135-.905.225-.271.09-.497.045-.769.09-.226.045-1.357.676-1.086.991.046.045.227.09.227.135 0 .09-.227.09-.272.135-.317.045-.633 0-.905.09-.588.135-1.176.45-1.719.766-.09.045-.226.135-.317.225.181.18-.814.495-.995.54-.226.09-.407.09-.633.09-.227 0-.407.135-.634.09-.226 0-.362-.09-.588-.09-.226 0-.452.045-.678 0-.227-.045-.362-.18-.588-.225-.227-.045-.408-.135-.634-.18-.452-.09-.995-.45-1.403-.225.046.225.046.36.181.585.091.135.272.27.408.406.09.045.135.135.226.225.045.045.136.09.18.135.091.135-.09.225-.135.09v.045c-.226 0-.452.09-.724.09-.226 0-.633.045-.86-.09-.045 0-.09-.09-.09-.09-.045-.045-.136 0-.226 0-.136 0-.271-.045-.452-.045-.272 0-.589-.045-.86-.045-.498-.045-1.04-.135-1.538-.18-.181-.046-.634-.135-.815 0-.271.27.996.72 1.177.81.226.135.543.225.724.405.226.18-.09.226-.227.226-.588 0-1.221-.18-1.81-.316-.633-.18-1.311-.27-1.9-.54-.27.135-.633-.135-.859-.225-.317-.09-.679-.135-1.04-.225-.227-.045-.724-.135-.589.27.09.225.453.45.634.585.045.045.362.18.271.315-.045.136-.271-.045-.362-.09-.045.136-.18.045-.271 0-.046 0-.136-.09-.181-.09-.046 0-.09.045-.136.045-.136 0-.226-.09-.317-.135-.09 0-.18 0-.271-.045-.226-.045-.407-.18-.588-.225-.227-.045-.498-.18-.724-.27a4.308 4.308 0 0 0-.815-.225c-.361.09-.723-.09-1.04-.225a12.169 12.169 0 0 0-1.221-.316c-.408-.09-.86-.135-1.267-.225-.362-.09-.724-.18-1.131-.09-.136 0-1.04.18-.724.405.18.136.452.136.633.226.181.045.317.135.498.225.18.09.316.135.497.225.09.045.362.225.362.315-.045.18-.904-.135-1.04-.18-.407-.09-.86-.045-1.267-.135-.452-.09-.95-.09-1.402-.225-.543.09-1.041-.135-1.539-.135-.543 0-1.13-.045-1.674.045-.543.045-1.085.135-1.628.225-.498.09-.996.18-1.448.405-.181.09-.362.135-.09.225.226.09.542.045.769 0 .271 0 .135.045.407.045.09 0 .226-.045.136.045-.136.18-.227.135-.408.226-.316.18-.542.27-.904.36-.86.225-1.72.315-2.58.495-.135.045-.316.045-.452.09-.407.09-.86.18-1.266.225-.634.09-1.222.135-1.855.225-.588.09-1.177.226-1.72.45-.271.09-.542.27-.723.496-.136.18-.136.315.09.36.317.045.679-.09.995-.18.317-.09.634-.09.95-.09-.045.405-.86.405-1.13.54-.227.09-.498.18-.724.316-.227.135-.453.315-.724.405.18.045.045.18-.09.225-.182.045-.408.045-.589.045-.18 0-.317.09-.498.09h-.633c-.181 0-.407.045-.633-.045-.181-.045-.362-.18-.543-.225-.181-.09-.362-.135-.498-.27-.136-.09-.317-.27-.498-.18-.135.09-.135.36-.135.495 0 .09.135.225.09.315-.09.135-.317-.09-.362-.135-.136-.09-.271-.135-.362-.225-.09-.045-.18-.135-.271-.18-.09-.045-.181-.045-.272-.135-.18-.136-.361-.18-.542-.316a6.59 6.59 0 0 0-.589-.405c-.226-.045-.407-.27-.633-.27-.317 0-.272.405-.226.585.09.136.407.496.18.63-.226.136-.678-.09-.904-.134-.317-.045-.543-.18-.815-.316-.271-.134-.542-.18-.814-.27-.588-.18-1.086-.495-1.628-.765-.272-.135-.543-.315-.815-.495-.226-.18-.497-.36-.769-.406-.362-.045-.407.225-.271.496.135.27.407.45.588.72.09.135.362.495.045.54-.181 0-.362-.045-.498-.045-.18 0-.362 0-.543-.045-.633-.045-1.221-.315-1.81-.54-1.175-.45-2.126-1.306-3.03-2.161-.136-.135-.272-.226-.362-.36-.046.134-.136.044-.181 0-.046-.046-.09-.136-.136-.136h-.226c0 .045-.09.226-.09.27 0 .046.09.18.135.226.045.18.136.36.18.54.227.045.137.495.137.676.045.134.316.54.18.72-.045.045-.361.045-.407.045-.18 0-.497-.09-.678-.18-.181-.09-.362-.27-.543-.405-.09.09-.136.044-.226-.046s-.181-.09-.317-.134c-.136-.09-.18-.226-.271-.27a2.137 2.137 0 0 1-.453-.451c-.497-.315-.769-.72-1.086-1.216-.135-.27-.362-.495-.543-.675-.226-.225-.407-.45-.633-.676-.136-.135-.452-.45-.633-.27-.181.135 0 .495.09.675.09.27.181.54.181.856 0 .225.09.676-.045.9-.272.451-.996-.585-1.131-.81-.317-.495-.679-.99-.95-1.53-.272-.586-.498-1.171-.77-1.802a15.432 15.432 0 0 0-.406-.855c-.091-.27-.181-.63-.408-.811-.226-.225-.407 0-.452.27-.045.36.045.72.045 1.036 0 .27 0 .54.045.81.046.18.09.316.136.496.045.09.136.27.09.36-.045.225-.316 0-.407-.09a1.91 1.91 0 0 1-.452-.766 7.106 7.106 0 0 0-.905-1.62c-.362-.45-.678-.901-1.086-1.306-.407-.45-.814-.901-1.266-1.306-.227-.18-.453-.36-.634-.586-.226-.225-.407-.495-.724-.63-.18-.09-.543-.18-.633.045-.09.225.136.63.226.856.045.135.181.54-.045.54-.226 0-.453-.315-.588-.45-.407-.36-.86-.72-1.312-1.036-.453-.315-.905-.675-1.403-.99-.452-.27-.95-.631-1.493-.586a.856.856 0 0 0-.362.09c-.09.045-.271.045-.316.135-.09.135.09.225.18.27l.272.27.272.27.135.136c.045.045.045 0 .09.045.091 0 .182 0 .227.09.09.09.18.18.226.315.136.225.272.405.453.585.18.225.316.45.497.72.453.18.679.811.95 1.171.317.496.498.991.679 1.531.136.496.498.991.498 1.531 0 .63-.679.045-.95-.045-.272-.09-.543-.18-.77-.36-.226-.18-.407-.63-.723-.63-.136 0-.317.045-.362.18 0 .09.045.18.09.225.045.09.09.225.136.315.226.405.452.856.678 1.261.136-.18.227.135.272.225.09.18.18.405.271.586.046.09.09.09.181.18.09.09.136.18.181.27l.136.27c.045.045.045.09.09.135.046.135.091.225.136.36v.09c-.045.09 0 .135-.136.09-.09 0-.135-.09-.18-.135-.136-.09-.227-.225-.362-.27-.227-.135-.634-.18-.634.18 0 .316.317.54.543.72.226.226.362.451.498.721.18.315.362.585.497.9.136.316.227.586.408.856.09.135.316.54.09.676-.226.09-.543-.226-.679-.36-.226-.226-.452-.496-.678-.72-.181-.226-.543-.902-.86-.631-.18.135-.045.45.045.63.136.36.362.63.498.99s.407.676.588.991c.09.18.181.36.272.495.09.136.271.226.407.36.271.316.588.631.95.901.136.09.271.18.362.316.045.045.09.09.136.18v.135c.407.405.769.72 1.221 1.035.226.136.407.316.588.496a5.7 5.7 0 0 1 .498.585c.09.09.136.18 0 .27-.09.045-.181.045-.226 0-.226-.135-.543-.18-.77-.225-.27-.045-.497-.135-.768-.225a6.05 6.05 0 0 1-.815-.315c-.136-.045-.271-.135-.407-.09-.136 0-.181.18-.271.18.045.18.09.495.226.63.045.045.18.09.226.18.09.09.18.136.226.226.136.135.272.405.453.495h.09c.045 0 .09.09.136.09.09.09.18.18.271.225.136-.27 1.584.856 1.81.946.045-.226.452.09.543.135.226.09.452.18.678.315.227.135.453.135.68.225.044.045.135.09.09.135-.046.09-.181 0-.227 0 .046 0 .046.045.09.045-.18 0-.542.045-.497.315.045.27.543.27.77.36.27.09.542.18.814.18.316.046.588.09.86.18.27.09.587.136.859.226.271.09.543.225.86.27.633.09 1.266.18 1.9.225.588.045 1.176.135 1.764.27.226.046.498.09.724.18.136.046.226.136.045.18-.271.046-.724-.044-.95.18-.136.136-.136.361.045.451.227.09.588.045.86.045a30.02 30.02 0 0 0 3.484-.045c.18 0 .361-.045.542 0 .046 0 .136 0 .227.045l.09.09h.679c.18 0 .362-.135.588-.135.09 0 .226 0 .317-.045l.27-.135c.091-.045.408-.18.453 0 .181-.045.86-.315.996-.135.135.135-.362.54-.407.675-.136.27-.091.406.226.316.18-.045.362-.18.543-.27.18-.09.361-.09.542-.18.408-.136.724-.406 1.086-.631.362-.225.724-.496 1.086-.676.317-.18.543-.495.86-.72.316-.225.588-.54.904-.81.181-.136.317-.316.498-.45.09-.09.272-.316.407-.226.181.09.046.315 0 .45-.09.18-.135.36-.135.586.452-.045.678-.586.904-.946.091-.18.181-.36.317-.495s.272-.27.407-.45c.317-.316.634-.676.996-.946.316-.27.678-.495.995-.81.136-.136.86-1.036 1.04-.856.227-.315.408.315.408.45.09.36.09.72.136 1.08.045.586-.317 1.262-.634 1.712-.09.135-.226.27-.317.405-.045.135-.09.27-.18.36-.091.09-.227.136-.227.27 0 .136.09.27.226.316.09 0 .181-.045.227.045.045.135-.136.36-.227.45-.226.27-.452.585-.678.856a2.14 2.14 0 0 1-.453.45c-.135.135-.226.27-.407.405-.136.135-.316.225-.497.36-.136.09-.227.18-.408.135-.18-.045-.09.36-.045.406.045.045.09.09.045.135-.18.135-.316.27-.497.405 0 0 0 .045-.045.045-.272.225-.589.495-.905.63 0 .046 0 .046-.046.09-.226.18-.452.36-.724.496-.226.135-.407.27-.633.405-.18.09-.317.18-.226.405.09.18.226.27.407.27.045.136 0 .136-.09.226a.724.724 0 0 0-.181.315c-.136.27-.272.54-.227.81 0 .316-.09.63-.135.946-.046.315-.136.63-.226.946-.09.315-.136.63-.136.945 0 .135-.045.27.136.225.09-.045.09-.135.18-.09.181.09-.09.586-.18.72-.136.27-.227.586-.362.856-.09.18-.181.315-.227.495-.09.136-.135.316-.18.45-.091.136-.498.721-.181.811.135-.225.27-.135.27.09 0 .136-.09.18-.135.316-.045.135-.09.225-.09.36-.046.225-.09.45-.09.72 0 .135-.046.27-.046.405-.045.09-.136.18-.136.27 0 .27.272.09.317.27.045.09 0 .271 0 .406s0 .225-.045.36c0 .27-.046.45 0 .72.045.226 0 .496.09.766s.136.586.136.856c0 .225.136.45.226.675.498.766 1.131 1.486 2.126 1.666.543.09 1.086.045 1.63 0 .542 0 1.085 0 1.628-.135.814-.225 1.312-1.126.724-1.846-.543-.675-1.493-.72-2.036-1.35-.588-.631-1.086-1.847-.588-2.658.045-.044.09-.135.136-.18-.181-.135 0-.585-.046-.81 0-.135-.09-.225-.09-.36 0-.135-.045-.27-.045-.406 0-.09 0-.225.135-.225.09 0 .181.135.272.18.316.226.18-.27.226-.405-.136-.045-.045-.225-.045-.315.045-.09 0-.225.045-.315-.362-.225.452-1.216.769-1.306.136-.045.136.045.226.135.045.09.136.18.226.18.317.09.408-.27.543-.54.046-.09.046-.18.09-.225.046-.09.091-.135.091-.225v-.18l.136-.27c-.136-.226.18-.496.317-.676.135-.18.316-.54.542-.63.091-.046.181 0 .272.044.136.046.271 0 .407 0 .317-.045.588-.045.905-.045.498-.045.995-.09 1.448-.18.136-.045.497-.135.633-.045.136.09-.045.316-.045.45.045.27.362.136.498.09.226-.09.497-.135.723-.27.227-.09.498-.27.724-.36.136-.09.453-.36.634-.315.18.045.18.36.362.405.226.045.407-.27.497-.405.136-.18.317-.315.453-.45.316-.406.678-.72 1.085-1.036.181-.135.362-.36.589-.405.18-.045.362.045.497-.045.226-.135.362-.36.543-.54.181-.18.362-.36.543-.496.136-.09 1.04-.63 1.131-.36 0 .045-.09.18-.136.18.272.315.498.09.77-.045.271-.135.588-.225.904-.315.272-.09.588-.225.815 0 .226.225.407.405.452.72.045.36-.136.81.362.946.045-.09.09-.18.136-.315.045-.09.045-.225.09-.27.09-.09.181 0 .226.09.09.27 0 .585-.045.855-.045.135-.136.45-.09.586.045.09.18.044.09.18-.045.09-.136.18-.18.315-.091.225-.227.495-.408.675-.362.405-.769.81-1.221 1.08-.317.181-.498.316-.588.676.045.045.045.045.045.09.09 0 .18.18.18.225 0 .09-.135.316-.225.18-.227.316-.272.676-.408 1.036a3.22 3.22 0 0 0-.316 1.126c0 .225-.046.765.226.9.271.09.226-.585.543-.45.18.045.316.316.452.45l.498.496c.09-.09.18.045.271.09.09.09.181.135.317.225l.271.27c.09.09.227.135.317.225.226.135.407.316.633.406.09.045.181.045.272.135.09.09.18.135.316.225.046 0 .046.045.091.045s.045-.045.09 0c.091.045.091.09.181.09.136.045.227.045.362.09.046-.09-.135-.225.046-.27-.09-.225-.046-.406.226-.27.09.045.18.09.317.135.135.045.18.135.271.225.181.18.407.315.588.495l.272.27c.09.09.135.226.18.27.091.09.182.136.227.226.09.09.18.225.271.315.181.18.362.27.588.45.181.135.408.315.634.405.226.09.452.27.633.406l.679.405c.136.09.588.27.407.495.452.63.905 1.441 1.674 1.756.769.316 1.583.045 2.352.045.453 0 .905.09 1.312.135.408.046.905.09 1.222-.225.633-.585-.181-1.71-.588-2.206-.272-.315-.543-.63-.905-.9-.543-.36-1.267-.406-1.855-.721a6.315 6.315 0 0 0-1.267-.54c-.407-.136-.814-.226-1.221-.36-.407-.136-.815-.406-1.176-.631-.091-.045-.272-.135-.181-.27.09-.09.316-.045.407-.135.18-.225-.634-.63-.77-.766-.316-.27-.678-.54-.95-.81-.316-.316-.542-.676-.769-1.036-.271-.405-.407-.9-.271-1.396.136-.45.498-.81.86-1.08.18-.136.316-.36.497-.54.09-.09.09-.09.226-.09l.046.044c.045 0 .045-.045.045-.045.045 0 .09-.045.136.045.361-.18.452-.63.769-.855.18-.136.226 0 .226.18 0 .225-.045.405.136.63a.138.138 0 0 1 .18 0c.272-.54.544-1.036.815-1.531.136-.225.226-.315.317-.045.045.135.09.225.136.315.045.09.09.225.18.316.362.225.317-.406.453-.54-.045-.181.045-.361.09-.541.046-.18.046-.36.136-.54.09-.18.09-.316.136-.496.045-.18.136-.36.226-.54.317-.72.633-1.396 1.312-1.936.136-.09.317-.27.498-.226.226.045.316.18.588.135.045-.27.136-.495.18-.765.046-.135 0-.72.182-.765.09 0 .226.18.316.225.09.09.227.18.317.27.181.135.407.315.633.315.317.045.362-.315.362-.54 0-.226-.135-.45.181-.406.272 0 .543.045.815 0 .316 0 .633-.09.905-.09.407 0 .316.36.226.63-.09.316-.226.541-.226.901.27.226.497 0 .769-.135.271-.135.588-.225.86-.36.316-.135.633-.225.95-.315.226-.045.588-.225.814-.09.316.135.045.54.135.765.046.135.09.225.272.18.317-.045.678-.27.995-.405.136-.045.272-.135.407-.225.09-.045.317-.225.453-.18.316.135-.272.585-.362.675-.226.18-.317.36-.317.63.045 0 .136.046.09.136.317.045.589-.09.86-.18.317-.09.588-.136.905-.226.317-.09.679-.135.995-.18.317-.045.589 0 .905-.045.136-.045.679-.225.543.09-.136.27-.498.316-.633.54-.407.586 1.085.451 1.357.406.18 0 .317-.045.498-.09.135-.045.362-.135.497-.09.226.09-.362.45-.452.54.09.225.362.09.543.135.226.09.452-.045.678-.045.136 0 .227 0 .362-.045.136-.045.227-.09.362-.135.227-.045.407-.18.634-.27.271-.09.18.315.18.495.182-.18.182.18.182.27V40.981c0 .226-.046.496 0 .766.09-.09.226 0 .18.135h.046c-.181.72-.498 1.441-.86 2.116-.18.316-.271.676-.407.991-.09.27-.453.675-.362.946.09.18.317 0 .407-.045.136-.09.317-.18.498-.18-.09.27-.271.36-.498.54-.226.18-.498.405-.724.675-.18.225-.362.496-.588.72-.18.226-.407.406-.588.631-.09.135-.226.18-.362.27l-.271.27c-.227.18-.498.27-.77.45-.09.046-.18.136-.27.226-.136.09-.272.09-.408.135-.271.09-.498.27-.814.315-.317.09-.634.225-.95.315-.136.045-.317.09-.498.136-.136.044-.226.18-.362.27.09.135-.136.27-.272.27-.407.495-.995.855-1.13 1.486-.181.63-.272 1.306-.136 1.981.09.405.226.675.678.765.408.046.77-.18 1.131-.315.272-.09.453-.225.679-.405.09-.09.362-.36.407-.09.317.54 1.222-.72 1.538-.9.317-.18.589-.496.86-.721.272-.18.498-.495.814-.63.136-.046.272-.046.181.135-.09.18-.271.27-.316.495.135.135.09.36.316.315.227-.09.362-.27.543-.45.362-.36.724-.72 1.131-1.08.09-.09.227-.136.272-.271.045-.09.09-.225.18-.27.227-.09.046.27.272.18.09-.045.226-.18.317-.225.09-.09.18-.135.316-.225.181-.136.272-.36.453-.54.181-.18.407-.316.543-.496.045-.045.09-.27.226-.225.09.045 0 .225 0 .315.136 0 .136-.135.226-.18l.272-.135c.09-.09.135-.18.226-.27.09-.09.18-.135.271-.225.136-.18.227-.45.272-.676.045-.09.136-.54.271-.315.136-.225.226-.45.272-.72.045-.316 0-.586.045-.901.045-.225.09-.315.317-.405.18-.045.316-.135.362-.36.09-.27.09-.541.135-.766.046-.27.136-.495.181-.766.046-.225.09-.45.181-.675.136-.225.226-.45.362-.675.226-.496.407-.991.679-1.441.226-.406.543-.9.86-1.216.18-.18.407-.315.588-.54.09-.09.18-.36.362-.406.18-.045.452.135.588.225.135.09.271.316.452.36.407.136.814-.18 1.176.09.407.27.95 0 1.312-.224.09-.045.362-.316.407-.135.091.36 0 .765.046 1.125.045.27 0 .54 0 .81.135.046.09.136.18.226.046.045.091.045.137.045.045.045.045.09.09.135.136.225.09.54.09.81s.046.586 0 .81c-.045.136-.045.271-.045.406 0 .09 0 .135.046.18 0 .045.045.09.045.18.09-.045.18 0 .18.09.046-.044.091-.044.136 0 .046-.09.136-.18.181-.27.046-.09.09-.225.181-.225.181-.09.407.27.498.36.18.18.362.27.543.45.18.18.362.36.543.496.09-.18.316.135.407.18.136.045.271 0 .407-.045-.045-.18-.09-.495.181-.315.226.135.453.315.679.45.226.135.407.36.633.496.226.135.407.36.633.54.091.09.181.18.317.27.09.09.181.225.272.27.09-.09.135 0 .226 0 .09 0 .136-.09.226-.09s.181.09.271.135c.09.045.181.045.272.09.362.135.678.316.995.54.091.046.136.09.226.136.091.045.136.135.227.225.045.045.135.09.181.18.09.045.135.18.181.225.135.135.271.045.407-.045.181-.09.271-.135.452-.045l.272.135c.09.045.226.045.316.09.181.09.408.18.453.405.09-.09.181.046.271.09.091.045.181 0 .226.09.136.136.227.316.362.45.227.271.589.541.815.136.226.09.452.135.678.225.226.135.453.27.634.45s.316.36.497.54c.091.09.181.18.317.18.136.046.181-.044.317.046.09.09.181.18.271.315.091.09.181.18.272.315.135.225.316.45.452.63a.666.666 0 0 1 .091.136c.045 0 .09-.045.135-.045h.362c.226.09.362.27.498.45.09.09.136.27.226.315.091.09.181 0 .317.045.09.045.226.18.316.27.091.09.272.18.317.316 1.176.675 2.896 1.71 4.208.675.543-.45.769-1.17.362-1.801-.453-.63-1.267-.81-1.946-1.036a4.543 4.543 0 0 1-1.9-1.125c-.588-.54-1.131-1.126-1.764-1.666-1.131-1.036-2.217-2.117-3.394-3.108-1.131-.9-2.262-1.71-3.347-2.656-.091-.045-.136-.135-.227-.18-.045-.045-.09-.09-.135-.09l-.046-.045s.046-.09.046-.045c-.408-.316-.815-.496-1.267-.766-.453-.225-.996-.495-1.357-.855-.317-.406-.453-.991-.634-1.441-.226-.54-.271-1.036-.316-1.621 0-.225-.046-.586.09-.72.136-.136.407-.046.588-.046.498-.045-.045-1.08-.09-1.35-.046-.27 0-.541 0-.811v-.495c0-.09-.046-.27 0-.316.135-.18.407.766.588.45.135-.18.045-.585.09-.81 0-.27.045-.585.091-.855l.271-1.757c0-.09.136-1.17.362-.9.136.135.272.72.453.315.181-.45.226-.99.316-1.486.045-.405.091-.81.181-1.17.045-.27.091-.496.136-.766 0-.09.045-.45.181-.45.271-.09.407.675.633.72.272.045.181-.945.227-1.126.045-.405.181-.81.271-1.215.09-.406.136-.766.498-1.036.316-.27.316-.676.452-1.036s.362-.495.633-.72c.272-.225.453 0 .815-.045.452-.045.678-.225.995-.586.498-.54 1.403-.45 2.081-.45.498 0 .996.09 1.448.135.498.045.995-.315 1.493-.315.498.045.995 0 1.493 0 .543 0 1.448-.045 1.991-.225l.045-.045c.316-.225.543-.586.769-.9.181-.27.362-.406.678-.496.362-.09.362-.045.634-.315.271-.315.317-.766.362-1.171 0-.45.045-.63.045-.81z"/><path fill="#fff" d="M91.503 13.47s.09-.046.181-.09c.136-.046.272-.09.498-.18.09-.046.181-.09.317-.136.09-.045.226-.09.362-.135.226-.09.497-.18.724-.315.226-.09.452-.225.588-.315.09-.045.135-.09.226-.09.09 0 .136-.045.226-.09.136-.09.226-.226.317-.36.09-.136.09-.18.09-.18h.09l.046.044c.045.045.045.09.09.18.046.09.046.18.091.315 0 .136 0 .27-.045.406a1.06 1.06 0 0 1-.272.405c-.135.09-.226.225-.362.315-.271.135-.588.135-.86.18l-.814.135h-.361c-.136 0-.227.045-.363.045-.226 0-.407.045-.497.045h-.226l-.046-.18zM101.684 6.85s-.045-.045-.045-.18c-.045-.09-.091-.27-.181-.45-.045-.09-.045-.18-.091-.315-.045-.09-.045-.226-.045-.36-.045-.27-.045-.541-.045-.811.045-.27.045-.54.136-.766a.718.718 0 0 1 .181-.315c.09-.09.135-.18.226-.225.136-.135.317-.225.407-.315a.493.493 0 0 0 .181-.09l.091.045v.18c0 .135-.046.27-.046.45a.64.64 0 0 1-.09.27c-.045.09-.045.18-.091.316-.09.18-.226.405-.316.63l-.136.675c0 .09-.045.225-.045.316V6.805l-.091.045zM96.619 11.397s.226-.225.543-.585l.271-.27.317-.315c.226-.226.407-.45.633-.676.227-.225.362-.45.498-.675.09-.09.136-.18.226-.27l.227-.226c.135-.18.226-.36.27-.495.046-.135.091-.225.091-.225h.09l.046.045c.045.045.09.09.09.18.091.135.182.405.136.72a.866.866 0 0 1-.135.45c-.09.136-.136.316-.227.451-.18.27-.497.45-.769.63-.271.18-.497.36-.769.54-.136.09-.271.136-.362.226-.136.09-.226.135-.317.225-.407.27-.723.405-.723.405l-.136-.135zM92.226 16.306s.09 0 .227-.045c.135-.045.362-.09.588-.135.136-.045.226-.09.362-.135.045-.045.135-.045.18-.09.091 0 .136-.045.227-.09.271-.09.543-.27.814-.45.272-.135.453-.36.634-.54l.135-.136c.046-.045.09-.09.181-.135.09-.045.227-.135.317-.18.18-.135.317-.225.407-.36.09-.135.045-.27.09-.27l.091-.045s.045 0 .045.09c.046.045.09.135.09.27.046.225 0 .54-.135.81a.978.978 0 0 1-.226.36c-.09.09-.181.226-.317.36-.271.226-.633.361-.95.496a3.61 3.61 0 0 1-.995.27c-.181.045-.317.045-.453.045-.135 0-.316.046-.452.046-.271 0-.498 0-.633-.046-.136-.045-.227-.045-.227-.045v-.045zM102.313 26.122s-.045-.09-.09-.226c-.046-.135-.091-.36-.181-.63-.046-.135-.046-.27-.091-.45s0-.316-.045-.54c0-.36.045-.766.09-1.171.091-.406.181-.81.408-1.171.045-.09.09-.18.18-.27.046-.09.136-.135.181-.226.091-.044.136-.134.181-.18.091-.044.136-.09.227-.135.135-.09.271-.135.362-.18.045 0 .09-.045.181-.045.045 0 .09 0 .135-.045.181-.045.272-.045.272-.045l.045.09s-.045.09-.136.225c-.09.136-.181.316-.316.54-.091.09-.136.226-.227.316-.09.135-.135.27-.226.405-.136.27-.362.54-.498.856-.09.315-.181.63-.271.99-.045.18-.09.316-.09.45 0 .136-.046.316-.046.45V26.077l-.045.046zM99.418 33.191s-.045-.09-.136-.315c-.09-.18-.18-.495-.317-.855-.045-.18-.09-.406-.135-.586-.046-.225-.046-.45-.09-.72-.046-.496 0-1.08.044-1.621.091-.54.136-1.08.272-1.576.09-.225.136-.495.271-.676.09-.225.227-.405.317-.585.18-.36.362-.63.498-.81.135-.18.226-.316.226-.316l.09.045v.406c0 .27-.045.585-.135.99-.046.18-.091.405-.136.585a3.318 3.318 0 0 1-.181.63c-.136.451-.317.902-.452 1.352-.046.225-.09.495-.136.72 0 .135-.045.225-.045.36 0 .136-.046.226-.046.36-.045.226-.045.45-.045.676 0 .225.045.405.045.63 0 .18.046.36.046.496 0 .135.045.27.045.405.045.225.09.315.09.315l-.09.09zM95.08 26.347s.27-.225.678-.63c.09-.09.226-.18.317-.316.09-.09.271-.225.362-.315.271-.225.543-.495.814-.72.271-.225.498-.496.679-.766.09-.09.18-.225.316-.315.09-.09.226-.18.272-.27.18-.18.316-.36.407-.495.045-.09.09-.136.09-.18l.046-.046h.09s0 .046.045.09c.046.046.046.136.09.226.046.18.046.495-.044.81a2.094 2.094 0 0 1-.227.45c-.09.136-.18.316-.316.45-.272.271-.589.451-.95.631-.317.225-.589.405-.905.585-.136.09-.317.136-.453.226-.135.09-.271.18-.407.225-.497.27-.86.45-.86.45l-.045-.09zM94.761 23.15s.045-.09.181-.225c.045-.09.09-.136.181-.27.045-.09.136-.226.181-.316.09-.135.136-.27.181-.405.045-.135.136-.27.226-.45.136-.316.272-.676.407-1.036.136-.36.227-.72.362-1.035.09-.18.136-.316.227-.45.045-.046.09-.136.135-.18.046-.046.09-.136.136-.181.136-.225.272-.405.317-.585.045-.09.045-.136.045-.18v-.09h.09s0 .044.046.09c.045.044.09.135.136.225.045.09.09.225.09.36v.225c0 .09 0 .135-.045.225 0 .09-.045.135-.045.225s-.046.18-.091.225c-.045.136-.09.316-.181.45-.136.316-.362.631-.588.946-.181.316-.362.63-.588.946-.09.135-.227.27-.317.405-.045.09-.09.135-.136.18-.045.045-.09.135-.135.18a2.567 2.567 0 0 1-.543.496c-.136.09-.227.18-.227.18l-.045.045zM100.236 20.223v-.81-.406c0-.135.045-.27.091-.45.045-.316.135-.63.271-.99a9.22 9.22 0 0 1 .452-.947c.091-.135.227-.27.362-.36.136-.09.272-.18.408-.225.135-.045.226-.09.362-.135.09-.045.18-.045.271-.045h.226l.045.09s-.045.09-.135.225c-.091.135-.181.27-.317.45-.045.09-.136.18-.181.27-.09.09-.136.226-.226.316-.181.225-.362.405-.543.63-.136.27-.272.54-.407.766-.045.135-.136.27-.181.36-.045.135-.091.27-.136.36-.136.45-.226.766-.226.766l-.136.135zM88.202 37.515h.136c.09 0 .18 0 .316-.045a3.186 3.186 0 0 0 1.04-.36c.182-.09.408-.226.589-.36.18-.136.407-.316.633-.451.407-.36.86-.766 1.222-1.26.407-.451.724-.947 1.085-1.397.181-.225.317-.45.543-.63a5.4 5.4 0 0 0 .498-.54l.77-.766c.18-.18.316-.27.316-.27v.135s-.045.18-.136.45c-.09.27-.226.63-.452 1.036-.09.18-.227.405-.362.63-.136.225-.272.45-.453.63-.362.406-.814.811-1.266 1.216-.408.406-.86.81-1.358 1.126-.226.18-.497.27-.723.405-.227.136-.498.225-.724.316-.453.18-.905.225-1.177.225h-.452l-.045-.09zM87.299 29.094h.317c.226 0 .497-.045.814-.09.181-.045.362-.045.543-.09.18-.045.407-.045.588-.09.407-.045.86-.135 1.312-.27.452-.045.86-.225 1.267-.316l.543-.135c.18-.045.362-.045.497-.09.317-.09.543-.135.724-.27.046-.045.09-.045.136-.09.045-.045.045-.045.09-.045.046-.045.091-.045.091-.045l.09.045v.09c0 .09-.045.18-.09.27a2.483 2.483 0 0 1-.679.72L93 28.96c-.18.045-.407.135-.588.18-.407.09-.905.09-1.357.09-.452.045-.905.045-1.312.045h-1.221c-.362 0-.634-.045-.86-.09a3.311 3.311 0 0 1-.362-.09zM94.713 38.505s0-.316.09-.811c0-.135.046-.27.046-.405s.045-.27.09-.45c.09-.316.18-.631.271-.991.136-.315.227-.676.408-.946.09-.135.18-.27.316-.36.136-.09.227-.18.317-.27.226-.18.452-.27.588-.315.136-.045.226-.09.226-.09l.046.09s0 .09-.046.27a4.67 4.67 0 0 1-.226.54c-.045.09-.09.225-.18.315-.091.09-.137.225-.182.36-.18.226-.362.45-.543.721-.135.27-.271.54-.452.81-.045.136-.136.27-.181.406-.045.135-.09.27-.136.36-.18.45-.317.766-.317.766h-.135zM99.104 41.882s-.18-.135-.452-.36a.988.988 0 0 0-.227-.18c-.09-.046-.135-.18-.18-.226-.136-.18-.272-.36-.363-.585-.09-.225-.226-.45-.226-.675 0-.136-.045-.226 0-.316a.927.927 0 0 0 .09-.27c.091-.18.227-.315.272-.405l.136-.135h.09s.046.045.09.135c.046.09.091.225.137.36 0 .09.045.135.045.225s.045.18.045.27v.586c.045.18.09.36.136.585.045.09.045.18.09.27.046.09.09.18.136.225.136.27.226.496.226.496h-.045zM93.042 42.873v-.18-.496-.315-.315c0-.225 0-.495-.046-.72 0-.226-.045-.451-.09-.631v-.135-.135-.135-.135c0-.18.045-.36 0-.45 0-.046-.045-.136-.045-.136l.045-.09s0-.045.045-.045h.09c.046 0 .091.045.136.045.091.045.136.09.227.18l.226.225c.045.09.136.226.136.36.045.136.09.27.09.406 0 .27-.09.54-.18.765-.046.27-.091.496-.182.72-.045.09-.09.226-.135.316-.046.09-.046.225-.091.315-.045.18-.136.36-.181.45l-.09.18.045-.044zM99.06 45.844s-.226-.09-.588-.27l-.271-.135a1.194 1.194 0 0 1-.272-.225c-.18-.18-.407-.36-.588-.54-.135-.226-.362-.406-.497-.631-.046-.135-.136-.225-.136-.36-.045-.135-.045-.225-.045-.36-.046-.406.09-.766.09-.766l.09-.045s.272.18.543.45c.046.09.136.135.181.27.046.09.136.18.181.27.09.18.136.451.272.676.136.225.271.405.362.586.045.09.09.18.18.27l.227.225c.271.27.407.45.407.45l-.136.135zM106.659 49.402l-.091-.09c-.045 0-.045-.045-.09-.045-.046 0-.091-.046-.136-.046-.181-.09-.407-.135-.679-.225a5.644 5.644 0 0 0-.452-.135c-.136-.045-.317-.135-.498-.18l-1.086-.405c-.362-.18-.723-.315-1.04-.495-.136-.09-.317-.18-.453-.316-.135-.09-.226-.225-.361-.315a3.487 3.487 0 0 1-.453-.54.606.606 0 0 0-.136-.18l-.045-.045.045-.09h.091c.045 0 .136 0 .226.045.181.045.452.09.679.225.135.045.271.09.407.18.136.09.317.135.452.225.317.18.588.45.86.63.317.18.633.36.905.586.135.09.271.18.452.27.136.09.272.18.407.225.272.135.453.27.634.405.09.046.135.136.181.18l.045.046.045.045c0 .045.045.045.045.045.136-.09.046 0 .046 0zM105.076 46.16s-.272-.045-.724-.18c-.091-.045-.226-.045-.362-.09-.136-.045-.226-.09-.362-.135-.272-.135-.543-.225-.815-.36-.226-.18-.542-.27-.769-.45-.09-.09-.226-.18-.271-.27-.09-.09-.136-.226-.226-.316-.226-.405-.317-.765-.317-.765l.045-.09s.362.045.769.225a2.6 2.6 0 0 1 .317.18c.091.09.226.135.317.225.181.18.362.405.588.585.226.18.452.36.633.496.091.09.181.18.317.225.09.09.181.135.317.18.362.225.588.405.588.405l-.045.135zM87.34 19.143s.137-.225.363-.54c.045-.09.136-.18.18-.27.046-.09.137-.18.227-.27l.543-.541c.226-.135.407-.36.633-.496.09-.045.226-.135.317-.135.136 0 .226-.045.362-.045.407 0 .724.09.724.09l.045.09s-.181.27-.452.496c-.09.045-.136.135-.227.18-.09.045-.18.135-.271.18-.181.09-.452.135-.679.225-.226.135-.407.225-.633.36-.09.045-.181.09-.317.18-.09.046-.18.136-.271.18-.317.226-.543.36-.543.36v-.044zM89.828 34.137s0-.09.045-.18c0-.135.045-.315.09-.495.046-.09.046-.226.09-.316.046-.135.137-.225.182-.36.09-.135.136-.225.226-.36.09-.135.181-.225.272-.36l.316-.316c.09-.09.226-.18.362-.27.136-.09.272-.135.407-.18.046 0 .136-.045.181-.045H92.542c.046 0 .09 0 .136.045.045 0 .09.045.09.045.046.045.091.09.091.135 0 .045.045.045.045.045l-.045.09s-.09 0-.136.09l-.09.09-.181.18c-.046.046-.09.046-.136.09-.045.046-.09.046-.136.09-.09.046-.18.136-.271.18-.09.046-.226.09-.317.136-.136.045-.226.09-.362.18-.09.09-.18.135-.317.225-.09.09-.18.18-.271.225a1.2 1.2 0 0 0-.226.27c-.09.09-.136.18-.181.27-.045.09-.09.136-.136.226-.045.09-.09.135-.09.18-.046.09-.09.135-.09.135l-.091-.045zM88.153 25.447s.09-.045.227-.135c.135-.09.316-.226.543-.36.09-.09.226-.18.361-.27l.408-.271c.271-.18.588-.405.814-.63.272-.226.498-.45.679-.676.045-.045.09-.09.135-.18 0-.045.046-.045.09-.09 0-.045.046-.045.091-.09l.136-.135.136-.135c.09-.09.136-.18.226-.27.09-.09.136-.18.18-.225.091-.136.137-.226.137-.226h.09s.045.09.09.27c.046.09.046.226.046.36v.226c0 .09-.045.135-.045.225-.046.18-.09.315-.181.495-.046.09-.09.135-.136.226-.045.09-.09.18-.18.225-.272.27-.634.45-.951.63-.317.18-.633.36-.95.495a1.36 1.36 0 0 0-.453.18c-.135.046-.271.136-.407.18-.271.09-.497.18-.633.226-.136.045-.226.09-.226.09l-.227-.135zM80.735 19.188s.18-.225.407-.495c.045-.09.135-.135.226-.225.09-.09.18-.135.271-.225.181-.135.407-.316.679-.405.226-.09.498-.226.77-.27.135 0 .27-.046.406 0 .136.044.227.09.362.134.227.135.362.27.407.406.046.135.046.18.046.18l-.046.09h-.135c-.046 0-.09.045-.136.045-.045 0-.136.045-.181.045-.09 0-.136.045-.226.045h-.136c-.045 0-.09.045-.136.045h-.633c-.226.045-.407.135-.634.18-.09.045-.226.045-.316.09l-.272.135c-.316.18-.542.27-.542.27l-.181-.045zM78.703 23.105s.135.045.316.09c.09 0 .227.045.362.045h.724c.09 0 .181-.045.271-.045.181-.045.408-.045.589-.09.407-.09.86-.225 1.266-.405.408-.136.815-.406 1.177-.586.18-.09.362-.225.543-.27.18-.09.362-.135.497-.18.317-.135.543-.225.724-.36.045-.045.09-.045.09-.09l.091-.09c.045-.046.045-.09.045-.09l.09.044v.271c0 .045-.044.135-.044.18-.046.135-.136.27-.227.405-.09.135-.226.27-.361.405-.136.136-.317.27-.453.36a.95.95 0 0 0-.272.18c-.09.046-.18.136-.27.18-.408.18-.86.316-1.313.406-.452.135-.905.225-1.357.225h-.996c-.09 0-.18 0-.316-.045-.362-.045-.679-.18-.905-.225-.226-.09-.317-.18-.317-.18l.046-.135zM83.767 36.388s.09-.045.226-.09c.136-.09.317-.18.498-.315.09-.09.226-.136.317-.226.09-.09.226-.135.361-.225.272-.18.543-.36.77-.54.271-.18.497-.405.678-.54.09-.09.181-.18.317-.226.09-.045.18-.135.271-.18.181-.135.317-.27.407-.405.046-.045.091-.135.091-.135l.045-.045h.09s0 .045.046.09c.045.045.045.135.09.225.046.18.046.495-.09.766a1.06 1.06 0 0 1-.272.405c-.09.135-.226.225-.361.36-.272.18-.589.315-.905.405-.272.135-.588.27-.86.36l-.407.136-.407.135c-.226.09-.453.135-.588.18-.136.045-.227.045-.227.045l-.09-.18zM83.994 42.468s.045-.316.09-.72c0-.09.046-.226.046-.36 0-.136.09-.226.09-.361.09-.27.181-.54.317-.81s.271-.54.498-.766c.09-.09.226-.225.362-.27.135-.045.27-.09.361-.135.136-.045.227-.045.362-.045.09 0 .181 0 .272.045.136.045.226.09.226.09v.09l-.136.135-.135.135c-.046.045-.09.135-.181.18-.046.09-.136.135-.181.225l-.227.225c-.135.135-.361.316-.542.496-.136.18-.272.405-.453.63a.724.724 0 0 0-.18.315c-.046.09-.091.225-.137.315l-.316.63-.136-.044zM80.87 43.728s0-.09.046-.27c.045-.18.09-.405.135-.675.046-.135.046-.27.046-.45s.09-.316.09-.496c.09-.36.136-.72.226-1.126.09-.36.136-.765.227-1.125.045-.18.09-.36.226-.495l.271-.406c.181-.27.407-.405.543-.495.09-.045.136-.045.181-.09h.045l.045.09v.09c0 .045-.045.09-.045.18-.045.135-.045.36-.136.63-.045.135-.045.27-.09.406-.045.135-.09.315-.136.45-.09.315-.316.675-.452.99-.136.36-.226.721-.407 1.036-.09.18-.136.315-.227.496-.045.135-.135.315-.18.45-.046.135-.136.27-.181.36-.046.09-.09.225-.136.27-.09.135-.136.225-.136.225l.045-.045zM82.502 46.79s-.045-.225-.136-.63c0-.09-.045-.18-.045-.315v-.316c0-.225.045-.495.045-.765.09-.225.09-.495.227-.72.045-.09.135-.225.226-.27a.948.948 0 0 1 .271-.18c.09-.046.181-.09.272-.09.09-.046.18-.046.226-.046h.226l.045.09s0 .09-.045.18c0 .09-.09.225-.136.406-.045.09-.045.135-.09.225l-.136.27c-.09.18-.271.315-.362.495a3.12 3.12 0 0 0-.226.586c-.045.09-.09.18-.09.27 0 .09-.046.18-.046.27-.045.36-.09.585-.09.585l-.136-.045zM76.07 52.059s.045 0 .09-.045c.046-.045.09-.09.181-.136.136-.135.272-.315.453-.495.09-.09.18-.225.271-.36.09-.135.226-.225.362-.36l.814-.81c.272-.226.543-.541.815-.766.136-.09.271-.225.407-.27.136-.09.272-.136.407-.226.226-.135.453-.225.588-.315.09-.045.136-.09.136-.135.045-.045.045-.09.045-.09h.09s0 .045.046.135v.135c0 .045 0 .09-.045.18a1.802 1.802 0 0 1-.362.72c-.09.136-.181.226-.317.361-.136.09-.226.225-.362.36-.271.225-.633.36-.95.586-.317.225-.588.405-.905.585-.136.09-.316.18-.407.27-.136.09-.271.18-.362.27-.226.18-.452.316-.588.406-.09.045-.136.09-.18.09-.046.045-.091.045-.091.045l-.136-.135zM72.364 53.95s0-.27.09-.72c0-.09.046-.226.046-.361 0-.135.09-.225.09-.36.09-.27.181-.54.317-.81.18-.226.317-.541.543-.721.09-.09.226-.18.362-.226.136-.044.271-.09.407-.09h.362c.09 0 .18.046.271.09a.313.313 0 0 1 .181.136v.09l-.135.135-.136.135a.62.62 0 0 1-.181.135l-.181.18c-.09.045-.136.135-.226.225-.181.135-.407.27-.588.45s-.317.406-.453.586a.724.724 0 0 0-.18.315l-.136.27-.317.63-.136-.09zM78.79 37.829l.135-.135.362-.36.226-.226c.09-.09.18-.134.271-.225.181-.18.362-.36.498-.54.18-.18.271-.36.362-.495.045-.045.09-.135.136-.18.045-.045.09-.09.18-.135.091-.09.136-.27.181-.406.046-.135.046-.225.046-.225l.09-.045.046.045c.045 0 .09.045.135.09.136.09.272.315.272.63 0 .136 0 .316-.09.45a1.82 1.82 0 0 1-.227.406c-.181.225-.452.36-.679.495-.226.136-.452.316-.678.406-.09.045-.226.09-.317.135a.947.947 0 0 0-.271.18c-.181.09-.317.18-.453.225-.135.045-.18.045-.18.045l-.046-.135zM72.183 35.848l.136-.135c.045-.045.136-.09.18-.18.091-.046.182-.136.318-.18.045-.046.135-.046.18-.09.046-.046.136-.046.181-.09.136-.046.317-.09.498-.136.362-.09.724-.135 1.04-.18.363-.045.68-.135.95-.18.137-.045.272-.09.408-.09.136 0 .271-.045.362-.045.226-.045.407-.09.543-.18.045-.045.136-.09.136-.135l.045-.045.09.045v.09c0 .045 0 .135-.045.27-.045.225-.226.495-.498.675-.135.09-.271.18-.452.225-.18.046-.317.136-.498.18-.362.09-.724 0-1.086-.044-.361 0-.678 0-.995-.045h-.452c-.136 0-.272.045-.407.045-.227.045-.408.135-.543.18-.136.045-.181.09-.181.09l.09-.045zM79.29 32.29s.09 0 .226-.044c.135-.046.316-.09.542-.136.091-.045.227-.09.362-.135.136-.045.272-.045.408-.09a8.81 8.81 0 0 0 .904-.225c.317-.045.588-.135.86-.18.136 0 .272-.045.407 0 .136 0 .226.045.362.045.226 0 .407.045.543.045h.271l.046.09s0 .045-.046.09c0 .045-.045.09-.135.18-.136.135-.317.316-.543.406-.136.045-.226.09-.362.135-.136.045-.272.09-.407.09-.272.045-.588-.045-.905-.045h-1.629c-.226 0-.452 0-.588-.045a.55.55 0 0 1-.226-.045l-.09-.136zM77.257 29.454s.543 0 1.312-.135c.181-.045.407-.045.634-.09.226-.045.452-.045.724-.09.497-.045 1.04-.135 1.583-.27.543-.09 1.04-.27 1.493-.405.226-.045.453-.135.679-.18a2.25 2.25 0 0 0 .588-.18c.362-.136.678-.226.86-.36a.985.985 0 0 0 .226-.136c.045-.045.09-.045.09-.045l.045.09s0 .045-.045.09a.94.94 0 0 1-.18.27c-.137.225-.408.54-.77.766-.18.135-.362.225-.588.36-.226.09-.452.18-.724.27-.498.135-1.04.135-1.583.18-.543.045-1.041.09-1.584.045-.271 0-.498-.045-.724-.045h-.678a16.172 16.172 0 0 1-1.403-.135h.045zM70.739 27.518s.09 0 .316-.045c.09 0 .226-.045.362-.045.136-.045.272-.045.453-.09.09 0 .18-.045.226-.045.09-.045.18-.045.271-.09.181-.045.362-.09.588-.135.181-.045.408-.09.634-.18.226-.046.452-.136.633-.18.453-.09.86-.226 1.312-.316.226-.045.407-.045.588-.045s.407 0 .588.045c.362.045.634.135.815.27.09.045.135.09.18.135l.046.046-.045.09h-.09c-.046 0-.136 0-.227.044-.18.046-.407.09-.724.18-.136.046-.316.09-.497.136-.181.045-.362.09-.589.135-.407.045-.814.045-1.266.09-.227.045-.407.045-.634.09-.226.045-.407.045-.633.045-.226 0-.407 0-.588.045-.181 0-.362.045-.543.045h-1.131l-.045-.225zM69.47 32.922s.046-.09.181-.27c.09-.18.272-.406.453-.676.09-.135.226-.27.362-.45l.452-.45c.362-.316.77-.586 1.267-.811l.362-.135c.135-.045.271-.09.362-.09.135-.045.271-.045.407-.09.135 0 .271-.045.407-.045.181 0 .272.045.407.045.136.045.226.045.317.09l.543.27c.317.18.543.315.724.45.18.135.271.18.271.18l-.045.09h-.362c-.226 0-.543 0-.905-.045-.18 0-.362-.045-.543-.09-.09 0-.18-.045-.271-.045h-.769c-.181 0-.408.045-.634.09-.407.135-.769.316-1.13.496-.182.09-.363.18-.498.315-.136.135-.272.225-.408.36a3.563 3.563 0 0 0-.588.585l-.226.226h-.136zM75.216 20.088s.09.045.18.045c.046 0 .136.045.227.045.09 0 .18.045.271.045.09 0 .227.046.317.046s.226.045.362.045c.226.044.498.044.724.044.226 0 .452-.044.633-.09h.272c.045 0 .09 0 .135.046h.136c.09 0 .181 0 .272.044h.452l.045.09s-.045.09-.136.18c-.045.046-.09.136-.18.18-.09.09-.136.136-.272.18-.09.046-.226.091-.317.136-.135.045-.271.09-.407.09-.271 0-.543-.09-.814-.18a2.236 2.236 0 0 1-.77-.27c-.135-.045-.225-.135-.316-.18-.09-.045-.226-.09-.317-.18l-.271-.136c-.09-.045-.136-.09-.181-.135l-.136-.135.09.09zM66.802 21.53h.407c.272 0 .679 0 1.131.044h.77c.27 0 .587.045.904.09.633.045 1.312.09 1.99.135.68.09 1.358.09 1.991.136.317.045.634.045.905.09.272.045.543.09.77.135.497.045.859.09 1.13.045.136 0 .272-.045.317-.09.09-.045.136-.045.136-.045v.09s-.046.045-.09.135c-.091.09-.182.18-.363.27-.316.18-.769.315-1.266.36-.272.045-.543.045-.815.045-.271 0-.588 0-.905-.045-.588-.045-1.221-.225-1.855-.36-.633-.09-1.266-.225-1.854-.315-.317-.045-.589-.135-.86-.18l-.814-.136c-.498-.09-.905-.135-1.177-.225-.271-.045-.452-.09-.452-.09v-.09zM65.852 23.69l.271.135c.181.09.407.18.634.226.135.045.271.045.407.045.135 0 .317.045.498.09.316.045.678.09 1.04.09.362.045.724.045 1.086.135.18.045.316.09.497.135.136.045.272.135.408.225.226.135.452.315.543.405l.18.18-.045.09s-.09 0-.271.045h-.679c-.136 0-.271 0-.407-.045-.136-.045-.317-.045-.453-.09-.316-.09-.633-.225-.95-.36-.316-.09-.678-.18-.995-.315-.18-.045-.317-.135-.452-.18-.136-.045-.317-.135-.453-.18-.135-.045-.271-.135-.362-.18a.945.945 0 0 0-.271-.18l-.226-.226v-.045zM60.062 20.088h.226c.136 0 .407.045.679.09.136 0 .271.045.452.09s.317.09.498.135c.362.135.724.27 1.086.45.361.226.723.406.995.631.136.135.271.27.362.45.09.135.18.315.226.45.09.316.136.586.09.766 0 .09-.045.135-.09.18 0 .045-.045.045-.045.045h-.09s-.046-.09-.136-.18c-.091-.09-.227-.27-.408-.405l-.271-.27c-.09-.09-.226-.18-.317-.316-.226-.225-.452-.495-.724-.72-.271-.225-.588-.36-.86-.586-.135-.09-.27-.18-.406-.224-.136-.046-.272-.136-.407-.18-.272-.09-.453-.18-.634-.226-.136-.045-.226-.09-.226-.09v-.09zM57.12 41.297s.044-.045.09-.135c.045-.09.135-.225.226-.405l.136-.27c.045-.09.135-.18.226-.27.09-.09.135-.18.226-.27.09-.09.136-.18.226-.27.136-.181.272-.406.407-.541l.227-.225c.09-.045.226-.136.316-.136.09-.044.226-.044.317-.09.09 0 .18 0 .226.045.136.045.181.09.181.09v.09s-.045.046-.09.136c-.046.09-.09.18-.181.315a.983.983 0 0 0-.136.225c-.045.045-.045.09-.09.135-.046.045-.046.09-.091.135-.181.18-.407.27-.633.405-.181.135-.408.316-.589.406-.09.045-.18.09-.271.18a.979.979 0 0 0-.226.18c-.272.225-.453.36-.453.36l-.045-.09zM51.15 43.098s.044-.09.135-.225c.045-.09.09-.136.136-.27.045-.09.135-.226.18-.316.046-.135.136-.27.182-.405.045-.135.135-.27.226-.45.136-.316.271-.63.362-.991.136-.315.136-.675.18-.946.046-.135.046-.315.091-.45l.136-.405c.09-.27.136-.495.181-.63.045-.18.09-.27.09-.27h.09s.046.09.182.27c.045.09.09.18.136.315 0 .045.045.135.045.18 0 .045.045.135.045.225s.045.135.045.225v.495c0 .09 0 .18-.045.27-.09.36-.271.721-.452 1.036-.181.315-.362.676-.543.946-.09.135-.227.27-.317.405s-.18.27-.271.36c-.09.09-.181.225-.272.316-.09.09-.136.18-.226.225l-.181.18-.136-.09zM52.415 47.015h-.181c-.09 0-.271-.045-.452-.045-.09 0-.181-.045-.317-.045-.09 0-.226-.09-.317-.135-.226-.09-.452-.27-.678-.45-.181-.225-.408-.45-.453-.766 0-.09-.045-.135-.045-.225s0-.135.045-.225c.045-.135.09-.27.136-.36.136-.18.271-.315.407-.36.136-.045.181-.09.181-.09l.09.045s0 .09.046.18v.18c0 .045 0 .135.045.18v.18c0 .09.045.135.045.225.046.135.046.36.09.54.091.18.227.316.363.45.09.09.135.136.226.18.09.046.136.091.226.136.317.18.498.27.498.27l.045.135zM59.198 51.698s-.045-.045-.18-.135c-.136-.09-.272-.225-.453-.405-.09-.09-.181-.18-.317-.27-.136-.09-.226-.18-.362-.27-.271-.18-.543-.27-.905-.36-.18-.09-.362-.136-.543-.226-.18-.09-.316-.18-.497-.27-.136-.135-.272-.225-.362-.405-.09-.18-.181-.315-.181-.495a.887.887 0 0 1 .09-.721c.046-.09.09-.135.136-.135l.045-.045.09.045v.045c0 .045.046.09.046.135.045.09.136.225.271.36.046.09.136.135.227.225.09.09.18.136.316.225.09.09.227.18.317.316.09.09.226.18.362.27.136.09.317.135.452.27.09.045.136.09.227.18.09.045.135.135.226.18.136.135.226.27.362.405.09.136.18.27.271.36.136.226.272.406.317.541.09.09.136.18.136.18h-.09zM63.77 53.544s-.046.045-.181.09c-.136.045-.272.135-.498.18a.845.845 0 0 1-.317.09c-.135.045-.271.045-.407.045a3.038 3.038 0 0 1-.905 0c-.317-.045-.633-.09-.905-.225-.09-.045-.135-.09-.18-.135-.046-.045-.136-.09-.181-.135-.046-.045-.091-.09-.136-.18a.341.341 0 0 1-.09-.18c-.136-.226-.182-.45-.136-.586 0-.09.045-.135.045-.18v-.045l.09-.045.046.045c.045 0 .045.045.135.045.09.045.227.135.362.18.09.045.181.09.226.135l.272.135c.18.09.407.27.633.36.136.045.227.09.362.09.136.046.226.046.362.09.136.046.226.046.362.046H63.724l.046.18zM54.135 45.71s-.045-.046-.136-.18a.985.985 0 0 1-.135-.226 2.19 2.19 0 0 1-.136-.315l-.136-.406c-.045-.135 0-.315 0-.495.046-.36.136-.72.317-1.08.181-.316.362-.676.498-.901.09-.135.18-.225.271-.315.09-.09.181-.136.226-.226.046-.09.09-.135.09-.225v-.27-.18-.09l.091-.045s.045 0 .09.045c.046 0 .046.045.091.045l.09.09c.091.09.182.18.227.315.045.135.09.36.09.54 0 .18-.09.36-.135.496-.09.135-.136.315-.272.45-.18.27-.452.45-.678.72-.181.27-.317.496-.407.766-.046.135-.091.27-.091.36v.36c0 .226.045.406.09.496.046.135.046.18.046.18l-.09.09zM103.854 9.236s.046-.045.136-.18c.045-.045.091-.135.181-.18.045-.09.136-.18.181-.27.091-.09.136-.225.181-.315.045-.09.136-.226.181-.36.136-.27.226-.541.272-.811l.135-.405.046-.09.045-.136c.045-.09.045-.18.09-.225.091-.135.136-.27.226-.36l.227-.225c.135-.135.271-.27.271-.405v-.09-.09-.09l.091-.046s.135.045.271.226c0 .045.045.045.045.09s.045.045.045.09c.046.09.046.135.046.225 0 .135 0 .27-.046.405l-.135.405c-.046.135-.091.27-.181.36-.045.046-.045.09-.091.136a.341.341 0 0 0-.09.18l-.272.405-.09.225c-.045.09-.091.135-.136.18a2.5 2.5 0 0 1-.271.36c-.091.136-.226.226-.317.316-.09.09-.226.18-.317.27-.09.09-.181.135-.271.225a.972.972 0 0 0-.226.135c-.136.09-.181.135-.181.135l-.046-.09zM60.062 37.153s.045-.09.09-.27c.046-.18.181-.405.362-.72.09-.135.181-.316.272-.45.136-.136.271-.316.452-.45.181-.181.362-.316.543-.451.09-.09.181-.135.317-.225.09-.09.226-.135.316-.18.453-.226.95-.45 1.403-.54.136 0 .226-.046.362-.046h.18c.046 0 .091 0 .182.045.226.045.407.045.588.135.18.045.317.135.452.18.136.09.227.136.317.18.181.136.272.18.272.18l-.046.09s-.135 0-.316.046c-.091 0-.227 0-.362.045-.136 0-.272.045-.453.045-.135 0-.316.045-.497.045s-.362.045-.543.09c-.181.045-.362.045-.589.09-.18.045-.407.045-.588.135-.407.135-.724.36-1.085.585-.09.045-.181.09-.227.18-.09.045-.135.136-.226.18l-.362.36c-.226.226-.362.451-.497.586-.046.09-.09.135-.136.18l-.045.045-.136-.09zM45.399 23.465s.361-.225.86-.585l.406-.27c.136-.09.317-.18.498-.27.18-.09.362-.18.588-.27.181-.09.407-.18.634-.27a.841.841 0 0 1 .316-.09c.09-.046.226-.046.317-.09.226-.09.452-.136.633-.136a1.5 1.5 0 0 1 .634 0c.18.045.362.09.543.09.633.18 1.04.405 1.04.405v.09s-.136.046-.317.09c-.18.046-.497.136-.769.18-.135 0-.316.046-.497.046h-.272c-.09 0-.18.045-.271.045h-.543c-.181 0-.407 0-.588.045s-.362.09-.588.135c-.181.045-.362.09-.543.18-.181.045-.362.09-.543.18-.181.045-.317.135-.498.18-.317.135-.543.225-.724.27-.18.045-.271.09-.271.09l-.045-.045zM53.816 21.889s.453-.09 1.131-.135c.181 0 .362-.045.543-.045h.634c.452 0 .95 0 1.402.045.498.045.95.09 1.403.18.226.045.452.09.633.225l.543.27c.317.18.543.406.679.54.135.136.226.27.226.27l-.045.09s-.136 0-.317-.044c-.09 0-.226-.045-.362-.045-.136 0-.272-.045-.453-.09-.18-.045-.361-.045-.542-.09-.181-.045-.362-.09-.588-.135-.408-.09-.815-.27-1.267-.36-.453-.09-.86-.136-1.267-.226-.226-.045-.407-.09-.588-.09s-.407-.045-.543-.045c-.679-.045-1.176-.09-1.176-.09l-.046-.225zM50.787 25.626s.317-.18.814-.405c.136-.045.272-.135.407-.18.136-.09.317-.09.453-.18.181-.045.362-.09.543-.18l.543-.135c.18-.046.362-.046.588-.09.181-.046.407-.046.588-.046s.362 0 .498.09c.136.046.316.09.452.136.272.135.498.27.633.36.046.045.091.135.091.135v.09l-.045.045h-.045s-.046 0-.136.045c-.136 0-.362.045-.634.09h-.859c-.136 0-.317-.045-.453-.045-.18 0-.316-.045-.497-.045s-.317.045-.498.045c-.18 0-.317.045-.498.045-.18 0-.316.045-.497.045-.136.045-.317.045-.453.09-.543.135-.904.18-.904.18l-.09-.09zM51.694 29.454h.905c.136 0 .272-.046.408-.046.135-.044.316 0 .452-.044.317-.046.679-.09.995-.136.362-.045.679-.135.995-.18.091 0 .136 0 .227-.045h.226c.136 0 .271.045.407.045.272.045.498.09.634.09.18.045.271.09.271.09v.09s-.09.09-.226.18c-.09.046-.136.09-.272.18-.09.046-.226.136-.362.18l-.407.136a1.62 1.62 0 0 1-.452.09c-.317.045-.679 0-1.04-.045-.363 0-.68 0-1.041-.045-.181 0-.317-.045-.498-.09-.136 0-.317-.045-.452-.045-.136-.045-.272-.045-.362-.09-.09-.045-.226-.045-.272-.09-.18-.045-.271-.09-.271-.09l.136-.135zM40.47 24.501s.226-.135.633-.315c.09-.045.181-.09.317-.135.09-.045.226-.09.362-.135.271-.09.543-.135.814-.225.272 0 .588-.09.86-.09.135 0 .271 0 .407.09a.73.73 0 0 1 .316.18c.091.045.181.135.272.18l.181.18c.09.135.09.18.09.18l-.045.09h-.045c-.045 0-.09 0-.136.045-.136.045-.271.045-.452.045h-.633c-.227 0-.498-.09-.724-.135h-1.131c-.136 0-.227.045-.317.045-.407.045-.679.09-.679.09l-.09-.09zM34.18 25.536h1.492c.181 0 .362.045.543.045l1.221.135c.408.045.815.045 1.177.09.18.045.362.045.498.09.135.045.316.09.452.09.136.046.271.046.362.046h.136c.045 0 .09 0 .135-.046.046 0 .09-.045.136-.045.045 0 .045-.044.09-.044.046-.046.091-.046.091-.046l.09.046v.09c0 .045 0 .09-.045.135 0 .045-.045.09-.09.18-.136.225-.498.45-.86.495-.18.045-.362.045-.543.045-.18 0-.362 0-.588-.045-.407-.045-.77-.225-1.176-.315a8.28 8.28 0 0 1-1.131-.315c-.181-.045-.362-.135-.543-.18-.181-.046-.317-.09-.498-.136-.316-.09-.543-.135-.724-.18-.18-.045-.271-.045-.271-.045l.045-.09zM23.097 23.69l.09.09c.046.045.136.136.272.18.226.136.588.226.995.316.181.045.407.045.634.09.226 0 .497.045.723.09.543.045 1.086.09 1.674.09.543.045 1.131.045 1.674.045.272.045.543.045.77.09l.678.135c.407.09.724.18.995.27.227.09.362.135.362.135v.09l-.407.135c-.271.045-.633.136-1.04.136h-.679c-.226 0-.498 0-.724-.046-.498-.045-1.04-.18-1.583-.27-.543-.09-1.086-.18-1.584-.27-.271-.045-.497-.135-.724-.18-.226-.045-.497-.135-.678-.18a4.467 4.467 0 0 1-1.04-.495c-.046-.045-.137-.09-.182-.135-.045-.045-.09-.09-.136-.09-.045-.09-.09-.09-.09-.09v-.136zM21.377 27.428s.09-.045.227-.135a.943.943 0 0 0 .271-.18c.09-.046.226-.136.362-.18.136-.09.271-.136.407-.226.136-.09.362-.135.543-.18.181-.045.407-.09.588-.18.226-.045.407-.09.634-.09.226 0 .452-.045.633-.045h.633c.226.045.407.045.543.135.181.045.317.135.453.18.135.045.271.135.362.18.09.045.226.09.271.135l.272.135v.09s-.136.046-.317.09a4.07 4.07 0 0 1-.814.09c-.136 0-.317 0-.498-.044-.181-.046-.317-.046-.498-.046-.362-.044-.724-.134-1.086-.18h-.543c-.18 0-.362 0-.542.046-.181.044-.362.044-.498.044-.181.046-.317.09-.453.136-.271.09-.497.135-.678.225-.181.045-.272.09-.272.09v-.09zM15.948 20.583s.09.09.226.18c.09.045.136.135.271.225.09.09.227.18.317.27l.407.27c.136.09.317.226.453.316.316.225.678.45 1.085.63.363.226.77.316 1.086.45.181.09.362.136.498.226s.317.18.453.225c.135.09.27.135.361.225.136.09.227.135.317.18.181.09.271.18.271.18l-.045.09s-.135.045-.316.09c-.09.046-.227.046-.362.046h-.453c-.18 0-.362-.046-.543-.09-.18-.046-.362-.09-.588-.18-.362-.18-.724-.451-1.086-.721-.362-.27-.678-.495-.995-.81-.136-.136-.271-.316-.407-.451-.136-.135-.272-.27-.362-.405-.09-.135-.226-.225-.272-.36-.09-.09-.135-.226-.226-.27-.09-.18-.18-.27-.18-.27l.09-.046zM7.533 19.413s.543.09 1.358.27c.226.045.407.09.633.18.226.045.498.18.724.27.271.09.498.225.814.315l.815.406c.271.18.497.315.769.495.271.135.543.315.723.495.227.18.453.36.589.54.18.18.316.36.452.586.136.18.226.36.317.54.09.18.136.316.18.405.046.226.091.36.091.36l-.09.046s-.136-.09-.317-.27c-.181-.18-.452-.36-.814-.586l-.543-.405c-.181-.135-.407-.27-.588-.45-.408-.316-.77-.676-1.222-1.036l-1.357-.81c-.226-.136-.453-.226-.679-.36a8.845 8.845 0 0 1-.633-.27c-.814-.316-1.312-.496-1.312-.496l.09-.225zM7.533 14.37l.588.585.272.27c.09.09.18.225.271.36.181.225.408.496.634.766.18.27.407.495.633.72.09.135.181.225.226.36.046.136.09.226.136.36.045.136.09.226.136.316.045.09.045.18.09.27.046.135.046.27.046.27l-.09.045s-.091-.045-.272-.09c-.136-.09-.362-.18-.543-.36-.09-.09-.226-.18-.317-.27a2.49 2.49 0 0 1-.271-.36c-.181-.27-.272-.586-.453-.856-.136-.27-.317-.54-.452-.856-.046-.135-.136-.27-.181-.405a1.343 1.343 0 0 1-.181-.36 2.956 2.956 0 0 1-.272-.54c-.045-.136-.09-.226-.09-.226h.09zM2.196 11.713s.09.045.271.09c.181.09.453.18.724.315.136.09.317.135.498.225.18.09.316.225.497.315.362.225.724.54 1.086.856.317.36.679.675.95 1.035.046.09.136.18.181.27.046.046.046.09.09.136 0 .045.046.09.046.135.09.18.136.36.181.54.045.18.09.315.09.495V16.801h-.09s-.09-.09-.226-.27c-.136-.135-.272-.406-.498-.63l-.271-.406c-.09-.135-.227-.27-.317-.45a32.566 32.566 0 0 0-.633-1.036c-.272-.315-.543-.63-.86-.9l-.407-.406a2.48 2.48 0 0 0-.407-.315c-.272-.225-.498-.36-.634-.45-.135-.135-.226-.18-.226-.18l-.045-.045zM3.056 17.296s.226.18.543.405c.09.045.18.135.271.18.09.045.181.136.272.226.18.135.407.315.588.45.18.135.407.225.543.36.09.045.18.09.226.18.045.045.045.09.09.135.046.045.046.09.09.09.046.09.136.135.182.18.045.046.09.136.135.18.091.09.136.18.136.18v.09s-.09.046-.226.09c-.09.046-.136.046-.271.046-.09 0-.181 0-.317-.045-.136 0-.226-.045-.362-.09-.09-.045-.226-.09-.362-.18-.226-.18-.362-.406-.498-.63-.18-.18-.316-.406-.452-.586-.09-.09-.136-.225-.181-.315-.045-.09-.136-.18-.181-.27-.226-.316-.362-.54-.362-.54l.136-.136zM4.095 20.898s.272.045.634.135c.09.045.18.045.317.09.09.045.18.09.316.135.226.09.453.225.679.36.18.18.407.316.588.54.045.09.136.18.181.316.045.135.045.225.045.36v.27c0 .09-.045.18-.045.226-.045.135-.09.18-.09.18h-.091l-.136-.135-.316-.316c-.046-.045-.09-.135-.136-.18-.045-.09-.136-.135-.181-.225-.09-.18-.181-.36-.317-.54-.136-.18-.317-.316-.452-.45l-.226-.226c-.09-.045-.181-.135-.227-.18-.271-.18-.497-.36-.497-.36h-.046zM4.185 24.546s.09.045.226.09c.136.09.317.18.543.27.09.046.226.09.362.136.135.045.271.135.407.18.136.09.271.09.407.18.136.045.317.09.452.135.09 0 .136.045.227.045.09 0 .135.045.226.045h.361c.137 0 .272 0 .408.045.136.045.271.09.362.09.136.045.226.045.317.09.09.045.18.045.271.09.136.045.226.09.226.09v.09s-.09.045-.226.135c-.136.09-.362.18-.588.226-.136.045-.272.045-.407.045H7.17c-.046 0-.09-.045-.136-.045-.09-.046-.181-.046-.272-.09-.09-.046-.18-.09-.226-.09a.986.986 0 0 1-.226-.136c-.136-.09-.317-.135-.452-.225l-.408-.27c-.135-.09-.226-.18-.362-.315-.135-.09-.226-.18-.316-.27-.181-.18-.362-.316-.453-.406l-.18-.18.045.045zM6.584 29.364s.136.044.362.18c.226.09.543.27.905.405.18.09.407.18.633.225.226.09.452.18.724.27.498.18 1.04.27 1.583.27.272.045.543 0 .815 0 .271-.045.543-.09.814-.09.271 0 .498-.09.77-.045h2.125v.09s-.135.09-.361.226a1.83 1.83 0 0 0-.408.225c-.18.09-.361.135-.542.225-.181.09-.453.135-.68.18-.135 0-.225.045-.361.09-.136.045-.271.045-.407.045-.272 0-.543.045-.815 0a2.85 2.85 0 0 1-.86-.135c-.587-.09-1.13-.225-1.628-.495-.271-.09-.498-.226-.724-.36-.226-.136-.452-.226-.633-.36-.362-.226-.679-.451-.86-.586-.18-.135-.316-.225-.316-.225l-.136-.135zM8.713 22.025s.271.09.723.225c.09.045.227.045.362.09.136.045.226.09.362.18.272.135.543.225.815.36.271.135.543.27.769.405.09.09.226.18.316.27.09.09.136.18.227.316.045.09.135.18.18.27.046.09.091.135.136.225.09.135.136.225.136.225l-.045.09h-.272c-.135 0-.362-.09-.588-.18-.09-.045-.226-.09-.316-.18-.091-.09-.227-.135-.317-.225-.226-.18-.407-.405-.588-.585-.226-.18-.453-.36-.634-.496-.09-.09-.18-.18-.316-.225-.09-.09-.227-.135-.317-.18-.362-.225-.588-.45-.588-.45l-.045-.135zM10.34 27.788s.09-.045.226-.135c.136-.09.362-.18.588-.27.136-.045.272-.135.407-.18.136-.045.317-.09.498-.135.362-.09.77-.135 1.176-.135.408 0 .815 0 1.177.09.18.045.362.09.497.225.09.045.136.09.226.135.046.045.136.09.181.135.136.09.227.225.272.315.09.09.136.18.181.27.09.136.09.27.09.27l-.09.09s-.09 0-.271-.044c-.181-.045-.362-.09-.634-.18-.136-.046-.271-.046-.407-.136-.136-.045-.272-.045-.407-.09-.272-.09-.588-.225-.95-.315-.317-.045-.679-.045-.996-.09h-.497c-.136 0-.317.045-.453.045-.271.045-.497.09-.633.135-.136.045-.226.045-.226.045l.045-.045zM17.305 26.708v.09c0 .045.046.135.046.225.045.18.18.45.407.675.09.135.226.226.407.316.136.09.317.18.452.27.317.18.724.315 1.131.405.362.135.77.225 1.177.315.18.045.362.09.497.18.181.09.317.135.453.226.271.134.497.27.678.36.09.045.136.09.181.09a.14.14 0 0 0 .09.045v.09s-.135.045-.316.09a2.34 2.34 0 0 1-.814.045c-.181 0-.317-.045-.498-.045-.18-.045-.362-.045-.543-.135a8.476 8.476 0 0 1-1.13-.54c-.363-.18-.77-.36-1.087-.63-.18-.136-.316-.271-.452-.406a4.05 4.05 0 0 1-.407-.45 2.176 2.176 0 0 1-.362-.856v-.27-.09h.09zM16.536 33.371s.09-.045.226-.135c.136-.09.317-.225.588-.36.136-.045.272-.135.407-.225.136-.09.317-.135.498-.18.18-.045.362-.135.543-.135.18-.045.407-.09.588-.135.407-.045.814-.09 1.176-.09.181 0 .362 0 .543.09.181.045.317.09.453.18.543.225.86.495.86.495l-.046.09s-.09.045-.271.09c-.181.045-.408.09-.679.09h-.95c-.317-.045-.679-.09-1.04-.135-.363 0-.68 0-1.041.045-.181 0-.317 0-.498.045-.136.045-.317.09-.452.09-.046 0-.136.045-.181.045-.046 0-.136.045-.181.045-.09.045-.181.045-.272.09-.135.045-.226.09-.226.09l-.045-.09zM24.817 30.085h.769c.09 0 .226 0 .362-.045.136 0 .271 0 .407-.046.136 0 .272 0 .407-.044.046 0 .136 0 .227-.046.045 0 .135-.045.18-.045.046 0 .136 0 .181-.045l.181-.045c.046 0 .136-.045.181-.045.046-.045.136-.045.181-.045.046 0 .136-.045.181-.045h.498a.916.916 0 0 0 .498-.135c.045-.045.135-.09.135-.09l.046-.045.045-.045v.315c-.045.18-.181.45-.407.586a.988.988 0 0 1-.362.225l-.407.135c-.09 0-.136.045-.227.045h-.452c-.09 0-.136 0-.226-.045h-.453c-.135 0-.271-.045-.452-.045-.136-.045-.271-.045-.407-.09-.136-.045-.272-.045-.362-.09a4.71 4.71 0 0 1-.543-.135.497.497 0 0 1-.181-.09v-.045zM24.998 34.002s.181-.135.453-.36c.09-.045.136-.09.226-.18l.272-.136c.18-.09.362-.224.543-.315.18-.09.316-.225.497-.315.09-.045.136-.09.226-.09.091 0 .181 0 .227-.045.09 0 .135-.045.226-.045h.18c.137-.045.182-.045.182-.045l.09.045v.225c0 .135-.09.315-.226.45-.045.09-.136.136-.226.226-.09.045-.181.135-.271.18-.227.09-.453.09-.68.135-.225.045-.406.135-.633.135-.09 0-.18 0-.316.045-.09.045-.181.045-.272.045-.316.09-.543.135-.543.135l.046-.09zM31.105 31.75s.045-.36.136-.855c.045-.135.045-.27.09-.405.046-.135.09-.316.181-.45.136-.316.272-.63.498-.991.226-.315.452-.63.724-.856.136-.09.271-.225.452-.27.136-.045.317-.09.453-.135.136-.045.271-.045.407-.045.136 0 .226 0 .317.045.18.045.271.09.271.09v.09l-.18.18c-.046.045-.137.09-.227.18-.09.045-.181.136-.271.18-.091.046-.181.136-.317.226-.09.09-.181.18-.317.27-.226.18-.498.315-.724.54-.226.225-.407.495-.588.72-.09.136-.181.226-.271.36-.09.136-.136.271-.181.361-.227.45-.408.766-.408.766h-.045zM41.192 28.509s.272-.18.633-.406c.09-.045.181-.135.317-.225.09-.09.226-.135.362-.18.272-.135.543-.27.815-.36.27-.09.588-.225.859-.27.136 0 .272-.045.407 0 .136 0 .272.045.362.09.136.045.226.045.317.09.09.045.18.09.226.135.136.09.181.135.181.135v.09l-.18.09c-.091.045-.272.135-.498.18-.091.045-.227.045-.317.09-.136 0-.227.045-.362.09-.272.045-.543 0-.815.045-.271.045-.543.135-.814.135-.136.046-.271.046-.362.09-.136.046-.226.09-.362.09-.226.046-.407.136-.543.136-.135.045-.226.045-.226.045v-.09zM35.54 35.127s.046-.09.136-.225c.09-.135.226-.36.407-.585.09-.135.136-.27.227-.406.09-.135.18-.315.316-.45.226-.315.407-.675.634-1.035.226-.316.407-.676.588-.991.09-.135.18-.315.271-.45.09-.135.227-.27.317-.36.09-.136.18-.226.271-.316a.94.94 0 0 0 .181-.27c.09-.135.181-.225.181-.225l.09.045v.09c0 .045.046.135.046.225 0 .225 0 .495-.09.81-.046.18-.09.316-.181.496-.09.18-.136.315-.272.495-.18.315-.498.586-.769.9-.272.316-.498.631-.77.856l-.406.406c-.136.135-.226.27-.362.36l-.543.54c-.136.135-.226.18-.226.18l-.045-.09zM32.052 38.28l.18-.09c.136-.046.317-.136.544-.226.09-.045.226-.09.316-.18a1.36 1.36 0 0 0 .362-.18c.136-.09.271-.135.362-.225.045-.045.136-.09.181-.135l.181-.136.09-.044.091-.09.136-.136c.09-.09.18-.225.271-.27.09-.09.181-.18.317-.225.136-.045.226-.135.362-.18.226-.09.407-.18.588-.18.136-.045.226-.045.226-.045l.045.09s-.045.09-.09.225a1.834 1.834 0 0 1-.271.495c-.046.09-.136.18-.227.27-.09.09-.18.226-.316.316s-.272.18-.408.225c-.135.045-.316.135-.452.18-.136.045-.271.135-.453.18-.09.045-.135.045-.226.09-.09 0-.135.045-.226.045-.136.045-.271.045-.452.09-.136.045-.272.045-.407.045-.227.045-.453.045-.589.045h-.226l.09.045zM30.335 42.738s0-.27.045-.72c0-.09.046-.226.046-.36 0-.136.09-.226.135-.361.09-.27.227-.54.407-.81.181-.226.363-.496.634-.676.045-.045.136-.09.18-.135.091-.045.137-.045.227-.09.136-.045.272-.045.407-.045h.181c.045 0 .09.045.181.045.046 0 .09.045.136.045.045 0 .09.045.09.045.136.09.181.135.181.135v.09l-.18.09c-.091.045-.227.135-.363.225-.09.045-.135.09-.226.135a.798.798 0 0 0-.226.18 4.15 4.15 0 0 0-.588.36c-.181.18-.317.36-.498.541-.09.09-.136.18-.226.27l-.136.27c-.18.36-.271.586-.271.586l-.136.18zM55.989 37.244v-.18c0-.136.045-.316.09-.586l.136-.405c.045-.135.136-.27.226-.405.181-.27.362-.586.588-.9.272-.271.498-.586.77-.766.135-.09.316-.226.497-.226.181-.045.317-.09.453-.09.271-.045.497 0 .678 0a.66.66 0 0 1 .272.045l.045.09s-.045.09-.18.18c-.046.046-.137.136-.227.18-.045.046-.09.09-.136.09-.045.046-.09.046-.136.09-.045.046-.09.046-.135.09-.046.046-.09.09-.136.09-.09.046-.181.136-.317.226-.226.18-.543.315-.769.495a2160.92 2160.92 0 0 0-.995.991c-.09.135-.136.225-.227.315-.135.225-.226.36-.226.496-.045.044-.045.09-.045.135v.045h-.226zM48.43 33.822h.09c.046 0 .137 0 .272.045h.905c.181 0 .362-.045.588-.09.181-.045.408-.045.634-.09.452-.045.95-.18 1.402-.27.453-.09.95-.27 1.357-.405.227-.045.408-.135.589-.18l.542-.135a4.42 4.42 0 0 0 .77-.316c.09-.045.18-.09.226-.135.045-.045.09-.045.09-.045l.09.09s0 .045-.044.09c0 .09-.046.18-.136.27a3.287 3.287 0 0 1-.679.766 3.381 3.381 0 0 1-.543.315c-.18.09-.407.18-.633.27-.453.136-.95.136-1.448.18-.497.046-.95.09-1.402.09h-.679c-.226 0-.407 0-.633-.044a11.82 11.82 0 0 1-.95-.136c-.227-.044-.362-.134-.362-.134l-.046-.136zM44.316 31.256l.135-.27c.09-.18.227-.406.408-.631.09-.135.18-.27.316-.405.09-.136.272-.316.407-.45l.227-.226c.09-.09.18-.135.271-.225.09-.09.181-.135.272-.225.09-.045.18-.135.316-.18.09-.045.226-.135.317-.18.09-.045.226-.09.317-.135.226-.09.452-.18.678-.226.227-.045.408-.09.634-.09.18 0 .407.045.588.045.362.046.633.18.769.316.09.045.136.135.18.135l.046.045-.045.09h-.317c-.18 0-.407.09-.724.135-.135.045-.316.045-.452.09-.09 0-.181.045-.271.045-.091.045-.181.045-.272.09-.181.045-.362.045-.543.09-.18.045-.407.09-.588.135l-.543.27c-.181.09-.317.18-.498.316-.135.09-.316.18-.452.315s-.272.225-.362.36l-.543.54-.226.226h-.045zM39.79 34.902v-.18c0-.09 0-.27.046-.45 0-.09.045-.18.09-.316.046-.09.09-.225.136-.315.136-.225.272-.405.453-.63.18-.18.361-.36.542-.495.091-.045.181-.136.317-.136.09-.044.226-.044.317-.044h.724l.045.09s0 .09-.045.225c-.045.09-.045.135-.09.225a.793.793 0 0 1-.182.225.79.79 0 0 1-.226.18c-.09.045-.136.135-.226.18-.181.09-.407.18-.588.27-.09.045-.181.136-.272.18-.09.045-.18.136-.226.18-.09.046-.136.136-.226.18-.045.09-.09.136-.136.226-.045.045-.09.135-.136.18-.045.045-.045.09-.09.135-.045.09-.09.135-.09.135l-.136-.045zM45.223 33.597s.181-.225.453-.586c.09-.09.135-.18.226-.27.09-.09.18-.18.316-.27.227-.18.453-.36.724-.54.272-.135.543-.315.86-.36.136-.046.316-.046.452-.046.136.046.272.046.407.09.227.09.407.226.498.36.09.136.09.181.09.181l-.045.09s-.09 0-.18.045c-.046 0-.136.045-.182.045-.09 0-.135.045-.226.045-.09.045-.18.045-.271.045a.842.842 0 0 0-.317.09c-.226.045-.498.045-.77.09-.225.09-.497.18-.723.27-.136.046-.226.09-.317.136-.09.044-.18.135-.271.18-.362.225-.588.36-.588.36l-.136.045zM44.952 38.595s.045-.09.09-.225c.091-.135.227-.315.408-.585.09-.135.18-.225.316-.36.091-.136.272-.226.408-.36.316-.271.633-.496.995-.721.362-.18.77-.406 1.176-.496.227-.045.408-.09.588-.045.181 0 .362.045.543.09.317.09.543.226.679.36.09.046.136.136.136.136l.045.045-.045.09h-.272c-.18 0-.407.045-.633.09-.136.045-.272.045-.407.09-.136 0-.317.09-.453.09-.316.09-.678.09-1.04.225-.317.135-.679.315-.995.45-.136.09-.317.18-.453.27-.136.09-.271.18-.362.27-.226.18-.407.316-.543.451-.136.09-.18.18-.18.18v-.045zM38.258 38.46s.045-.045.09-.18a.98.98 0 0 0 .136-.226c.045-.09.136-.18.18-.27.091-.09.136-.18.227-.315.09-.09.226-.18.317-.27l.407-.27c.09-.045.136-.09.226-.135.09-.045.136-.09.226-.136.09-.044.181-.044.226-.09.09-.044.181-.044.227-.09.18-.044.316-.135.497-.135a.773.773 0 0 1 .453 0c.136 0 .316.045.452.09.272.09.498.225.543.36.09.136.045.226.045.226l-.045.045-.045.045h-.135c-.091 0-.227.045-.453.09-.09 0-.227.045-.317.045-.045 0-.136 0-.181.045-.045 0-.136.045-.181.045-.136 0-.271 0-.407.045-.136 0-.272 0-.453.045l-.407.135-.407.135c-.136.045-.271.09-.362.18-.09.09-.226.135-.316.18-.091.046-.181.136-.227.18-.09.045-.135.09-.18.136-.091.09-.182.135-.182.135l.046-.045zM38.53 40.802l.181-.09c.136-.045.272-.135.498-.225.09-.045.18-.09.317-.18.09-.045.226-.09.316-.18l.679-.406c.226-.135.407-.315.588-.405.09-.045.181-.135.317-.135.09-.045.226-.045.316-.09.181-.045.408-.09.543-.135.136-.045.227-.045.227-.045l.045.09s0 .09-.045.225c0 .09-.046.135-.09.225-.046.09-.091.18-.182.27-.09.09-.136.18-.271.27-.09.09-.181.18-.317.226-.226.135-.543.18-.814.27-.272.09-.543.18-.815.225-.135.045-.271.045-.407.045-.136.045-.226.045-.362.045a2.61 2.61 0 0 1-.543.045h-.18v-.045zM33.682 43.818s0-.09-.045-.225c0-.09 0-.18-.045-.27v-.36-.226c0-.09 0-.135.045-.225 0-.18.09-.36.136-.495.045-.09.045-.18.09-.27l.136-.27.271-.541c.136-.18.226-.315.362-.496.136-.135.272-.315.407-.45.09-.045.136-.135.227-.18.09-.045.135-.09.226-.135.18-.09.317-.135.452-.18.317-.09.543-.135.724-.135h.226c.045 0 .09-.045.09-.045l.046.09-.045.045-.046.045-.045.045c-.045.045-.09.09-.135.18-.136.135-.272.315-.498.495-.09.09-.181.18-.317.27-.136.09-.226.226-.362.316-.136.09-.271.225-.407.315-.136.09-.271.225-.407.36-.09.135-.226.27-.317.405l-.271.406c-.09.135-.181.27-.227.405l-.135.405c-.045.135-.045.225-.09.36 0 .09-.046.18-.046.27-.045.136-.045.226-.045.226l.045-.135zM29.114 46.745l.045-.045.136-.135c.09-.135.181-.27.271-.45.046-.09.046-.18.091-.316.045-.09.09-.225.136-.315.09-.225.18-.495.271-.72.09-.226.181-.496.272-.721.045-.09.135-.225.226-.27.09-.09.18-.135.271-.225.317-.27.679-.36.679-.36l.09.044s.046.316-.09.721c-.045.09-.045.18-.09.27-.046.09-.091.225-.136.315-.136.18-.317.36-.498.586-.136.225-.271.405-.407.63-.09.09-.136.18-.226.27-.046.09-.136.18-.181.27-.136.18-.272.316-.407.406a.343.343 0 0 1-.181.09c-.046 0-.091.045-.091.045l-.181-.09zM33.095 52.283s-.272-.045-.634-.09c-.09 0-.18-.045-.316-.09-.09-.045-.227-.09-.317-.135-.09-.045-.226-.135-.317-.18-.09-.09-.226-.18-.316-.27-.091-.09-.181-.226-.272-.316a1.35 1.35 0 0 1-.181-.36c-.045-.135-.09-.225-.045-.36 0-.135.045-.225.045-.315.09-.405.317-.63.317-.63h.09s.046.044.136.135c.09.09.136.225.226.36.046.09.09.135.09.225 0 .045.046.09.046.135 0 .045.045.09.045.135.045.09.045.18.045.27.046.09.046.18.09.315.046.09.137.18.182.225.045.09.136.136.18.226.046.045.046.09.091.09.046.045.09.045.136.09.09.045.181.09.226.135.317.18.498.315.498.315l-.045.09z"/><path fill="#fff" d="M32.916 53.725h-.045c-.045 0-.09.045-.18.045-.091 0-.182.045-.318 0h-.226c-.09 0-.136-.045-.226-.045s-.181-.045-.271-.045c-.091-.045-.181-.045-.272-.09l-.271-.136c-.09-.044-.181-.135-.272-.18a4.789 4.789 0 0 1-1.04-1.08c-.09-.225-.272-.45-.362-.72-.046-.136-.09-.226-.136-.361-.045-.135-.045-.225-.09-.36-.046-.225-.046-.495-.046-.676 0-.225.045-.405.09-.585.091-.36.227-.63.317-.81.09-.18.181-.27.181-.27l.09.044s.046.135.091.36c0 .09.046.226.046.36.045.136.045.271.045.451 0 .09 0 .18.045.27 0 .09.045.18.045.27 0 .09.046.18.046.27 0 .09.045.18.045.27 0 .09.045.18.045.271 0 .09.045.18.045.315.045.225.09.405.136.586.181.36.407.72.679.99.045.09.135.135.18.18l.091.09c.045.045.09.045.09.09.136.09.317.18.453.225.272.136.543.18.724.226H32.87l.045.045zM103.403 18.018s.045-.09.09-.226c.091-.135.181-.36.317-.585.091-.135.136-.225.226-.36.091-.135.227-.27.362-.36.272-.226.634-.496 1.086-.586.452-.09.86-.135 1.267-.09.181.045.362.09.543.18.181.09.316.18.407.27.226.18.407.406.452.586.046.09.046.135.046.18v.045l-.091.045s-.09-.045-.226-.09a5.92 5.92 0 0 0-.588-.135c-.136-.045-.227-.045-.362-.09-.136-.045-.272-.045-.407-.09-.272-.045-.589-.18-.905-.135a2.745 2.745 0 0 0-.86.27c-.136.09-.271.135-.362.225-.09.09-.226.18-.316.27-.181.18-.317.36-.453.45-.09.135-.181.18-.181.18l-.045.046zM104.488 13.335s.226-.226.633-.496c.091-.09.226-.135.317-.225.136-.09.271-.135.407-.18.271-.135.588-.27.95-.36.317-.045.679-.135 1.041-.135.09 0 .181 0 .271.045.091 0 .181.045.226.09.136.09.272.135.407.225l.136.135.136.135c.045.045.045.09.09.135.046.045.046.09.046.135.045.135.09.225.09.225l-.09.045s-.091 0-.227-.045c-.135 0-.316-.045-.497-.09-.091 0-.226 0-.317-.045-.136 0-.226 0-.362-.045-.226-.045-.543-.09-.814-.135-.272 0-.588.09-.86.135-.136.045-.271.045-.407.09-.136.045-.226.09-.362.135-.452.136-.769.27-.769.27l-.045-.044zM100.825 14.054v-.135c0-.09 0-.225.046-.405 0-.09.045-.18.045-.27 0-.09.045-.18.09-.315a4.13 4.13 0 0 1 .317-.63c.136-.18.271-.406.407-.541a.952.952 0 0 1 .272-.18c.09-.045.226-.045.316-.045.181-.045.362 0 .498.045s.181.09.181.09l.045.09s-.045.045-.09.135c-.046.045-.046.09-.091.135a.64.64 0 0 0-.136.18c-.045.045-.09.135-.181.18l-.18.18c-.136.09-.362.18-.498.316l-.407.405c-.046.09-.136.135-.181.225-.046.09-.091.135-.136.225a2.481 2.481 0 0 0-.181.315l-.045.09-.091-.09zM57.301 27.383s.543-.226 1.357-.54l.679-.27c.226-.09.543-.136.814-.226.588-.135 1.177-.315 1.81-.405.633-.09 1.267-.18 1.9-.18.136 0 .317 0 .453.045.135 0 .271.045.452.09.136.045.271.09.407.09.136.045.226.09.362.135.136.045.226.09.317.135l.271.135c.09.045.181.09.227.135.045.045.135.09.18.135.227.18.317.27.317.27l-.045.09s-.181 0-.453-.045c-.271-.045-.633-.045-1.085-.09-.227-.045-.453 0-.679-.045h-.77c-.542-.045-1.085-.09-1.673-.09-.588.045-1.131.135-1.72.18l-.814.135c-.271.046-.497.09-.723.136-.905.18-1.493.315-1.493.315l-.09-.135z"/></svg>